<?xml version="1.0" encoding="UTF-8"?>
<svg version="1.1" xmlns="http://www.w3.org/2000/svg" width="200" height="200">
<path d="M0 0 C3.96 0 7.92 0 12 0 C12 4.29 12 8.58 12 13 C14.475 12.505 14.475 12.505 17 12 C17 12.66 17 13.32 17 14 C18.55460937 14.07347656 18.55460937 14.07347656 20.140625 14.1484375 C21.51044208 14.22349597 22.88023248 14.29904247 24.25 14.375 C24.93191406 14.4059375 25.61382812 14.436875 26.31640625 14.46875 C30.00652817 14.68370856 32.84312637 15.03071216 36 17 C38.84982163 18.42491082 41.8671868 19.24128682 44.90625 20.18359375 C47 21 47 21 49 23 C51.77260299 24.93798263 51.77260299 24.93798263 54 26 C54.99 26.66 55.98 27.32 57 28 C57.680625 28.28875 58.36125 28.5775 59.0625 28.875 C61 30 61 30 62 32.0625 C62.33 32.701875 62.66 33.34125 63 34 C63.598125 34.144375 64.19625 34.28875 64.8125 34.4375 C68.19514887 35.30732399 69.76607879 37.4038213 72 40 C72.34227417 41.33106622 72.67751743 42.66400079 73 44 C74.31647119 44.69937532 75.65022151 45.36729133 77 46 C77.33 46.99 77.66 47.98 78 49 C78.66 49.99 79.32 50.98 80 52 C80.33 52.99 80.66 53.98 81 55 C81.66 55.66 82.32 56.32 83 57 C86.4572901 60.88945137 87.36122973 65.20538009 88.5 70.1875 C88.93464228 72.06721184 88.93464228 72.06721184 90.0625 73.8125 C91.38497859 76.89828337 91.12750849 79.68477932 91 83 C91.66 83.33 92.32 83.66 93 84 C92.67 85.65 92.34 87.3 92 89 C92.66 89.33 93.32 89.66 94 90 C93.67 91.32 93.34 92.64 93 94 C98.94 93.505 98.94 93.505 105 93 C105.81720493 96.26881973 106.11073543 98.46999069 106.0625 101.75 C106.05347656 102.54921875 106.04445312 103.3484375 106.03515625 104.171875 C106.02355469 104.77515625 106.01195312 105.3784375 106 106 C102.79984144 107.06671952 101.11455706 106.94845472 97.8125 106.5625 C96.91144531 106.46066406 96.01039063 106.35882813 95.08203125 106.25390625 C94.05142578 106.12822266 94.05142578 106.12822266 93 106 C93.02320313 106.66386719 93.04640625 107.32773438 93.0703125 108.01171875 C93.16988593 112.88370426 93.10711555 116.52237945 91 121 C91 122.32 91 123.64 91 125 C90.34 125 89.68 125 89 125 C89.20625 125.598125 89.4125 126.19625 89.625 126.8125 C90 129 90 129 88 132 C87.18209435 134.29422534 86.48561769 136.61010233 85.78125 138.94140625 C85 141 85 141 83 143 C81.06201737 145.77260299 81.06201737 145.77260299 80 148 C79.34 148.99 78.68 149.98 78 151 C77.690625 151.70125 77.38125 152.4025 77.0625 153.125 C76 155 76 155 73 156 C72.65134874 157.32941009 72.32028503 158.66347226 72 160 C70.51171875 161.88671875 70.51171875 161.88671875 68.6875 163.6875 C68.09324219 164.28949219 67.49898437 164.89148438 66.88671875 165.51171875 C65 167 65 167 62.83203125 167.51953125 C62.22746094 167.67808594 61.62289062 167.83664063 61 168 C60.67 168.99 60.34 169.98 60 171 C59.01 171.33 58.02 171.66 57 172 C54.04225556 173.89298451 54.04225556 173.89298451 51.6875 175.9375 C47.39855595 179.2290152 43.332763 181.15798479 38 182 C35.82255485 182.46188231 34.14089603 182.92226426 32.1875 184 C29.20357885 185.36407824 26.23766442 185.58030276 23 186 C22.34 186.33 21.68 186.66 21 187 C18.875 186.5625 18.875 186.5625 17 186 C16.67 186.66 16.34 187.32 16 188 C14.68 187.67 13.36 187.34 12 187 C12 191.29 12 195.58 12 200 C10.576875 200.061875 9.15375 200.12375 7.6875 200.1875 C6.88699219 200.22230469 6.08648437 200.25710937 5.26171875 200.29296875 C3 200 3 200 1.21875 198.8125 C-0.42341401 196.37030737 -0.30107677 194.72763706 -0.1875 191.8125 C-0.14689453 190.46091797 -0.14689453 190.46091797 -0.10546875 189.08203125 C-0.07066406 188.39496094 -0.03585938 187.70789063 0 187 C-0.96421875 186.93941406 -1.9284375 186.87882813 -2.921875 186.81640625 C-4.18515625 186.73261719 -5.4484375 186.64882812 -6.75 186.5625 C-8.00296875 186.48128906 -9.2559375 186.40007812 -10.546875 186.31640625 C-15.93789348 185.82243284 -21.13577002 184.43211499 -26 182 C-28.29565128 181.25048699 -30.59968633 180.53159077 -32.90625 179.81640625 C-35 179 -35 179 -37 177 C-39.77260299 175.06201737 -39.77260299 175.06201737 -42 174 C-42.99 173.34 -43.98 172.68 -45 172 C-45.680625 171.71125 -46.36125 171.4225 -47.0625 171.125 C-49 170 -49 170 -50 167.9375 C-50.495 166.9784375 -50.495 166.9784375 -51 166 C-51.598125 165.855625 -52.19625 165.71125 -52.8125 165.5625 C-56.19514887 164.69267601 -57.76607879 162.5961787 -60 160 C-60.34227417 158.66893378 -60.67751743 157.33599921 -61 156 C-62.31647119 155.30062468 -63.65022151 154.63270867 -65 154 C-65.33 153.01 -65.66 152.02 -66 151 C-66.66 150.01 -67.32 149.02 -68 148 C-68.33 147.01 -68.66 146.02 -69 145 C-69.66 144.34 -70.32 143.68 -71 143 C-74.4572901 139.11054863 -75.36122973 134.79461991 -76.5 129.8125 C-76.93464228 127.93278816 -76.93464228 127.93278816 -78.0625 126.1875 C-79.38497859 123.10171663 -79.12750849 120.31522068 -79 117 C-79.66 116.67 -80.32 116.34 -81 116 C-80.67 114.35 -80.34 112.7 -80 111 C-80.66 110.67 -81.32 110.34 -82 110 C-81.67 108.68 -81.34 107.36 -81 106 C-86.94 106.495 -86.94 106.495 -93 107 C-93.81720493 103.73118027 -94.11073543 101.53000931 -94.0625 98.25 C-94.05347656 97.45078125 -94.04445313 96.6515625 -94.03515625 95.828125 C-94.02355469 95.22484375 -94.01195313 94.6215625 -94 94 C-90.79984144 92.93328048 -89.11455706 93.05154528 -85.8125 93.4375 C-84.91144531 93.53933594 -84.01039062 93.64117187 -83.08203125 93.74609375 C-82.05142578 93.87177734 -82.05142578 93.87177734 -81 94 C-81.02320312 93.33613281 -81.04640625 92.67226562 -81.0703125 91.98828125 C-81.16988593 87.11629574 -81.10711555 83.47762055 -79 79 C-79 77.68 -79 76.36 -79 75 C-78.34 75 -77.68 75 -77 75 C-77 72.69 -77 70.38 -77 68 C-76.01 67.505 -76.01 67.505 -75 67 C-74.855625 66.071875 -74.71125 65.14375 -74.5625 64.1875 C-73.96894801 60.82403871 -73.18514446 59.53476757 -71 57 C-69.06201737 54.22739701 -69.06201737 54.22739701 -68 52 C-67.34 51.01 -66.68 50.02 -66 49 C-65.690625 48.29875 -65.38125 47.5975 -65.0625 46.875 C-64 45 -64 45 -61 44 C-60.65134874 42.67058991 -60.32028503 41.33652774 -60 40 C-58.51171875 38.11328125 -58.51171875 38.11328125 -56.6875 36.3125 C-56.09324219 35.71050781 -55.49898437 35.10851563 -54.88671875 34.48828125 C-53 33 -53 33 -50.83203125 32.48046875 C-50.22746094 32.32191406 -49.62289062 32.16335937 -49 32 C-48.505 30.515 -48.505 30.515 -48 29 C-47.01 28.67 -46.02 28.34 -45 28 C-44.01 27.34 -43.02 26.68 -42 26 C-41.01 25.67 -40.02 25.34 -39 25 C-38.34 24.34 -37.68 23.68 -37 23 C-33.11054863 19.5427099 -28.79461991 18.63877027 -23.8125 17.5 C-21.94178963 17.05963218 -21.94178963 17.05963218 -20.1875 16 C-17.20357885 14.63592176 -14.23766442 14.41969724 -11 14 C-10.34 13.67 -9.68 13.34 -9 13 C-6.875 13.4375 -6.875 13.4375 -5 14 C-4.67 13.34 -4.34 12.68 -4 12 C-2.68 12.33 -1.36 12.66 0 13 C0 8.71 0 4.42 0 0 Z M-6 27 C-7.918125 27.2165625 -7.918125 27.2165625 -9.875 27.4375 C-12.98668398 27.79263785 -15.29615813 28.33609731 -18 30 C-18.66 30.33 -19.32 30.66 -20 31 C-20.65613281 31.3815625 -21.31226563 31.763125 -21.98828125 32.15625 C-23.13876953 32.82140625 -23.13876953 32.82140625 -24.3125 33.5 C-25.07175781 33.9434375 -25.83101562 34.386875 -26.61328125 34.84375 C-29.08850445 36.04287613 -31.29238666 36.57828323 -34 37 C-34 37.66 -34 38.32 -34 39 C-34.763125 39.268125 -35.52625 39.53625 -36.3125 39.8125 C-40.1888263 41.52529534 -42.24492857 44.25861467 -44.875 47.5 C-47.32449005 50.41373255 -49.73588335 52.04153001 -53 54 C-53.73323796 56.01508358 -53.73323796 56.01508358 -54 58 C-56 60 -56 60 -57.5625 61.3125 C-59.41201212 63.4836664 -59.4809733 65.2102315 -60 68 C-61.47532226 71.2072223 -63.04075722 74.06113584 -65 77 C-66.38806082 81.16418247 -67.11492349 84.63290747 -67 89 C-67.29749946 90.67343448 -67.62127066 92.34305915 -68 94 C-67.31292969 93.95359375 -66.62585938 93.9071875 -65.91796875 93.859375 C-65.01691406 93.82328125 -64.11585937 93.7871875 -63.1875 93.75 C-62.29417969 93.70359375 -61.40085937 93.6571875 -60.48046875 93.609375 C-58 94 -58 94 -56.203125 95.85546875 C-54.70551575 98.52490861 -54.45915846 99.98674 -55 103 C-56.4375 104.8125 -56.4375 104.8125 -59 106 C-62.01771016 106.2389237 -64.98006841 106.17422682 -68 106 C-67.4336543 113.4072056 -66.65087744 120.38278464 -63 127 C-61.48085496 129.94334351 -60.22983483 132.92541293 -59 136 C-58.0167296 138.22874624 -57.22579287 139.77420713 -55.5 141.5 C-54 143 -54 143 -53.125 145 C-52.08744167 147.23811462 -52.08744167 147.23811462 -49.4375 148.5 C-48.633125 148.995 -47.82875 149.49 -47 150 C-46.82984375 150.90685547 -46.82984375 150.90685547 -46.65625 151.83203125 C-45.68782277 155.03129979 -43.68213713 156.18424808 -41.0625 158.1875 C-40.16660156 158.88230469 -39.27070312 159.57710937 -38.34765625 160.29296875 C-36.13128344 162.00281719 -36.13128344 162.00281719 -34 163 C-33.401875 163.309375 -32.80375 163.61875 -32.1875 163.9375 C-30.65198332 164.68332239 -29.08496777 165.36601289 -27.5 166 C-25 167 -25 167 -23.11328125 167.96484375 C-17.33671921 170.79439817 -11.37324179 172.26462595 -5 173 C-3.33065717 173.31966139 -1.6626783 173.64731066 0 174 C0.03738281 173.31292969 0.07476562 172.62585938 0.11328125 171.91796875 C0.17902344 171.01691406 0.24476562 170.11585938 0.3125 169.1875 C0.37050781 168.29417969 0.42851563 167.40085938 0.48828125 166.48046875 C1.07055954 163.65797477 1.70806206 162.69957716 4 161 C6.5625 160.625 6.5625 160.625 9 161 C11.10827055 164.16240582 11.33817465 165.50657469 11.625 169.1875 C11.73714844 170.53908203 11.73714844 170.53908203 11.8515625 171.91796875 C11.90054688 172.60503906 11.94953125 173.29210937 12 174 C22.52359326 173.2633815 22.52359326 173.2633815 32 169 C33.4485046 168.12926971 34.90776237 167.27627919 36.375 166.4375 C37.12523437 166.00308594 37.87546875 165.56867188 38.6484375 165.12109375 C41.10627285 163.94933504 43.31938093 163.42151077 46 163 C46 162.34 46 161.68 46 161 C47.1446875 160.5978125 47.1446875 160.5978125 48.3125 160.1875 C52.24263973 158.45092663 54.44023558 155.54816698 57.1875 152.3125 C57.71730469 151.68988281 58.24710937 151.06726563 58.79296875 150.42578125 C59.19128906 149.95527344 59.58960938 149.48476562 60 149 C60.66 149.33 61.32 149.66 62 150 C63.60539721 147.44595899 64.96642355 145.09233523 66 142.25 C66.33 141.5075 66.66 140.765 67 140 C67.99 139.67 68.98 139.34 70 139 C70.95356065 137.03696127 70.95356065 137.03696127 71.5625 134.6875 C72.84973757 130.28762016 74.45097042 126.82354437 77 123 C78.38806082 118.83581753 79.11492349 115.36709253 79 111 C79.29749946 109.32656552 79.62127066 107.65694085 80 106 C79.31292969 106.04640625 78.62585938 106.0928125 77.91796875 106.140625 C77.01691406 106.17671875 76.11585938 106.2128125 75.1875 106.25 C74.29417969 106.29640625 73.40085938 106.3428125 72.48046875 106.390625 C70 106 70 106 68.203125 104.14453125 C66.70551575 101.47509139 66.45915846 100.01326 67 97 C68.4375 95.1875 68.4375 95.1875 71 94 C74.01771016 93.7610763 76.98006841 93.82577318 80 94 C79.4336543 86.5927944 78.65087744 79.61721536 75 73 C73.48085496 70.05665649 72.22983483 67.07458707 71 64 C70.0167296 61.77125376 69.22579287 60.22579287 67.5 58.5 C66 57 66 57 65.125 55 C64.08744167 52.76188538 64.08744167 52.76188538 61.4375 51.5 C60.633125 51.005 59.82875 50.51 59 50 C58.82984375 49.09314453 58.82984375 49.09314453 58.65625 48.16796875 C57.68782277 44.96870021 55.68213713 43.81575192 53.0625 41.8125 C52.16660156 41.11769531 51.27070313 40.42289063 50.34765625 39.70703125 C48.13128344 37.99718281 48.13128344 37.99718281 46 37 C45.4225 36.690625 44.845 36.38125 44.25 36.0625 C41.89222522 34.88639029 41.89222522 34.88639029 38.8125 34 C36 33 36 33 35 31 C33.00239695 30.65259077 31.00212229 30.32033957 29 30 C28.01 29.34 27.02 28.68 26 28 C23.88970352 27.58093926 23.88970352 27.58093926 21.625 27.4375 C18.35639388 27.13889977 15.20757401 26.72429091 12 26 C11.96261719 26.68707031 11.92523438 27.37414062 11.88671875 28.08203125 C11.82097656 28.98308594 11.75523438 29.88414063 11.6875 30.8125 C11.62949219 31.70582031 11.57148437 32.59914063 11.51171875 33.51953125 C10.92944046 36.34202523 10.29193794 37.30042284 8 39 C5.4375 39.375 5.4375 39.375 3 39 C0.89172945 35.83759418 0.66182535 34.49342531 0.375 30.8125 C0.26285156 29.46091797 0.26285156 29.46091797 0.1484375 28.08203125 C0.09945312 27.39496094 0.05046875 26.70789063 0 26 C-3.7763932 25.7018576 -3.7763932 25.7018576 -6 27 Z M-63 71 C-62 73 -62 73 -62 73 Z M74 127 C75 129 75 129 75 129 Z " fill="#000000" transform="translate(94,0)"/>
<path d="M0 0 C0.7940625 -0.00386719 1.588125 -0.00773437 2.40625 -0.01171875 C9.27488121 -0.00027103 14.80328405 1.02664203 21 4.125 C23.64998505 5.21217335 26.28160163 6.21886721 29 7.125 C29 7.785 29 8.445 29 9.125 C29.928125 9.351875 30.85625 9.57875 31.8125 9.8125 C35.6165205 11.37886138 36.04450958 12.63912577 38 16.125 C38.86625 16.640625 39.7325 17.15625 40.625 17.6875 C43 19.125 43 19.125 43.8125 21.3125 C43.874375 21.910625 43.93625 22.50875 44 23.125 C44.66 23.125 45.32 23.125 46 23.125 C46.19335938 23.76308594 46.38671875 24.40117188 46.5859375 25.05859375 C46.97652344 26.29802734 46.97652344 26.29802734 47.375 27.5625 C47.63023437 28.38621094 47.88546875 29.20992187 48.1484375 30.05859375 C48.80882227 32.30298016 48.80882227 32.30298016 51 33.125 C54.88601595 44.19383243 54.41569541 56.62519727 53 68.125 C52.34 68.125 51.68 68.125 51 68.125 C51.061875 69.218125 51.12375 70.31125 51.1875 71.4375 C51 75.125 51 75.125 49.5625 76.75 C48.7890625 77.430625 48.7890625 77.430625 48 78.125 C47.27802838 80.73111077 47.27802838 80.73111077 47 83.125 C46.34 83.125 45.68 83.125 45 83.125 C44.773125 84.053125 44.54625 84.98125 44.3125 85.9375 C42.73645881 89.76502861 41.49517803 90.12775541 38 92.125 C36.64837492 94.11268394 35.31306433 96.1116347 34 98.125 C32.515 98.62 32.515 98.62 31 99.125 C30.3503125 99.8675 30.3503125 99.8675 29.6875 100.625 C27.31932032 102.73004861 25.08518447 102.78220173 22 103.125 C22 103.785 22 104.445 22 105.125 C20.66666667 105.45833333 19.33333333 105.79166667 18 106.125 C17.38125 106.29 16.7625 106.455 16.125 106.625 C10.56517186 107.93319486 5.24601658 108.30747479 -0.4375 108.3125 C-1.16259766 108.32474609 -1.88769531 108.33699219 -2.63476562 108.34960938 C-7.42647508 108.36252503 -11.40042123 107.61427831 -16 106.125 C-16.9075 105.980625 -17.815 105.83625 -18.75 105.6875 C-21.39353762 105.0266156 -22.11260311 104.01239689 -24 102.125 C-26.60611077 101.40302838 -26.60611077 101.40302838 -29 101.125 C-29 100.465 -29 99.805 -29 99.125 C-29.928125 98.898125 -30.85625 98.67125 -31.8125 98.4375 C-35.6165205 96.87113862 -36.04450958 95.61087423 -38 92.125 C-38.86625 91.609375 -39.7325 91.09375 -40.625 90.5625 C-43 89.125 -43 89.125 -43.8125 86.9375 C-43.874375 86.339375 -43.93625 85.74125 -44 85.125 C-44.66 85.125 -45.32 85.125 -46 85.125 C-46.19335938 84.48691406 -46.38671875 83.84882813 -46.5859375 83.19140625 C-46.84632812 82.36511719 -47.10671875 81.53882812 -47.375 80.6875 C-47.63023438 79.86378906 -47.88546875 79.04007812 -48.1484375 78.19140625 C-48.80882227 75.94701984 -48.80882227 75.94701984 -51 75.125 C-54.88601595 64.05616757 -54.41569541 51.62480273 -53 40.125 C-52.34 40.125 -51.68 40.125 -51 40.125 C-51.061875 39.031875 -51.12375 37.93875 -51.1875 36.8125 C-51 33.125 -51 33.125 -49.5625 31.5 C-48.7890625 30.819375 -48.7890625 30.819375 -48 30.125 C-47.27802838 27.51888923 -47.27802838 27.51888923 -47 25.125 C-46.34 25.125 -45.68 25.125 -45 25.125 C-44.773125 24.196875 -44.54625 23.26875 -44.3125 22.3125 C-42.73645881 18.48497139 -41.49517803 18.12224459 -38 16.125 C-36.64837492 14.13731606 -35.31306433 12.1383653 -34 10.125 C-33.01 9.795 -32.02 9.465 -31 9.125 C-30.566875 8.63 -30.13375 8.135 -29.6875 7.625 C-27.31932032 5.51995139 -25.08518447 5.46779827 -22 5.125 C-22 4.465 -22 3.805 -22 3.125 C-20.66666667 2.79166667 -19.33333333 2.45833333 -18 2.125 C-17.0409375 1.8775 -17.0409375 1.8775 -16.0625 1.625 C-15.381875 1.46 -14.70125 1.295 -14 1.125 C-13.31808594 0.95226563 -12.63617188 0.77953125 -11.93359375 0.6015625 C-7.94186455 -0.04689417 -4.03685421 -0.01966 0 0 Z M-7 14.125 C-8.5778125 14.3415625 -8.5778125 14.3415625 -10.1875 14.5625 C-11.115625 14.748125 -12.04375 14.93375 -13 15.125 C-13.33 15.785 -13.66 16.445 -14 17.125 C-15.671875 18.125 -15.671875 18.125 -17.75 19.125 C-18.42546875 19.455 -19.1009375 19.785 -19.796875 20.125 C-22 21.125 -22 21.125 -24.50390625 21.9765625 C-27.50910567 23.35923641 -29.03957761 24.99893756 -31.1875 27.5 C-31.86167969 28.27085938 -32.53585938 29.04171875 -33.23046875 29.8359375 C-35.46884374 32.73149543 -36.79919026 35.09585008 -37.5 38.6875 C-38 41.125 -38 41.125 -40 44.125 C-40.039992 46.12460012 -40.04346799 48.12547242 -40 50.125 C-40.495 50.62 -40.495 50.62 -41 51.125 C-41.16666667 54.125 -41.16666667 54.125 -41 57.125 C-40.67 57.455 -40.34 57.785 -40 58.125 C-40.020625 58.8675 -40.04125 59.61 -40.0625 60.375 C-39.9777021 64.10610741 -38.64623752 66.83252496 -37 70.125 C-35.99515117 72.45624929 -34.99477753 74.78943537 -34 77.125 C-33.34 77.125 -32.68 77.125 -32 77.125 C-31.92394531 77.69992188 -31.84789062 78.27484375 -31.76953125 78.8671875 C-30.73645749 81.8982364 -29.10125664 83.17203602 -26.6875 85.25 C-25.90761719 85.93320313 -25.12773438 86.61640625 -24.32421875 87.3203125 C-21.4138736 89.58010991 -19.05261028 90.91961263 -15.4375 91.625 C-13 92.125 -13 92.125 -10 94.125 C-8.00039988 94.164992 -5.99952758 94.16846799 -4 94.125 C-3.67 94.455 -3.34 94.785 -3 95.125 C0.56075747 95.28325589 3.58287483 95.08606645 7 94.125 C8.051875 93.980625 9.10375 93.83625 10.1875 93.6875 C11.115625 93.501875 12.04375 93.31625 13 93.125 C13.33 92.465 13.66 91.805 14 91.125 C15.671875 90.125 15.671875 90.125 17.75 89.125 C18.76320313 88.63 18.76320313 88.63 19.796875 88.125 C22 87.125 22 87.125 24.50390625 86.2734375 C27.50910567 84.89076359 29.03957761 83.25106244 31.1875 80.75 C32.19876953 79.59371094 32.19876953 79.59371094 33.23046875 78.4140625 C35.46884374 75.51850457 36.79919026 73.15414992 37.5 69.5625 C38 67.125 38 67.125 40 64.125 C40.039992 62.12539988 40.04346799 60.12452758 40 58.125 C40.33 57.795 40.66 57.465 41 57.125 C41.16666667 54.125 41.16666667 54.125 41 51.125 C40.67 50.795 40.34 50.465 40 50.125 C40.020625 49.3825 40.04125 48.64 40.0625 47.875 C39.9777021 44.14389259 38.64623752 41.41747504 37 38.125 C35.99515117 35.79375071 34.99477753 33.46056463 34 31.125 C33.34 31.125 32.68 31.125 32 31.125 C31.9175 30.54878906 31.835 29.97257812 31.75 29.37890625 C30.21596499 24.76881145 25.83420978 21.87460915 22 19.125 C19.65657018 18.07817007 17.42884103 17.32732155 14.9453125 16.6953125 C13 16.125 13 16.125 10 14.125 C8.00039988 14.085008 5.99952758 14.08153201 4 14.125 C3.505 13.63 3.505 13.63 3 13.125 C-0.56075747 12.96674411 -3.58287483 13.16393355 -7 14.125 Z " fill="#000000" transform="translate(100,45.875)"/>
<path d="M0 0 C3.95015106 1.28379909 3.95015106 1.28379909 5.5 3.8125 C5.74713438 6.53097813 5.63479526 9.0716631 5.5 11.8125 C4.63375 12.1528125 4.63375 12.1528125 3.75 12.5 C0.32984828 14.4950885 -1.8044742 17.28234325 -3.4375 20.875 C-4.93871118 23.61250274 -7.01274026 24.93323709 -9.5 26.8125 C-11.22669876 28.38114853 -12.94933197 29.95279747 -14.65625 31.54296875 C-17.00309567 33.15891121 -18.65324032 33.65826379 -21.5 33.8125 C-23.4921875 32.625 -23.4921875 32.625 -25.375 30.8125 C-26.05304688 30.16152344 -26.73109375 29.51054688 -27.4296875 28.83984375 C-28.11289063 28.17082031 -28.79609375 27.50179687 -29.5 26.8125 C-30.52480469 25.94818359 -30.52480469 25.94818359 -31.5703125 25.06640625 C-36.2799968 20.93828216 -36.2799968 20.93828216 -36.93359375 17.59375 C-36.9375 15.375 -36.9375 15.375 -36.5 11.8125 C-32.99223216 10.20894899 -30.35645121 9.59213136 -26.5 9.8125 C-26.231875 10.410625 -25.96375 11.00875 -25.6875 11.625 C-24.51506533 13.78474808 -23.30630718 15.17040256 -21.5 16.8125 C-19.35634883 16.0045235 -19.35634883 16.0045235 -18.6875 14 C-17.11661392 11.10626249 -15.12778249 9.79793566 -12.5 7.8125 C-10.70441991 6.28132401 -8.92583999 4.73189872 -7.1484375 3.1796875 C-3.03976156 -0.22798212 -3.03976156 -0.22798212 0 0 Z " fill="#000000" transform="translate(115.5,83.1875)"/>
<path d="M0 0 C4.52615993 3.67832017 8.39424999 7.41086363 12 12 C8.60140297 10.53033642 6.35036291 8.61962486 3.75 6 C3.04359375 5.29875 2.3371875 4.5975 1.609375 3.875 C0 2 0 2 0 0 Z " fill="#000000" transform="translate(79,104)"/>
<path d="M0 0 C3.36720387 1.39332574 4.9859524 2.9789286 7 6 C3.63279613 4.60667426 2.0140476 3.0210714 0 0 Z " fill="#000000" transform="translate(89,94)"/>
<path d="M0 0 C1.98 0.99 1.98 0.99 4 2 C3.01 2 2.02 2 1 2 C0.67 1.34 0.34 0.68 0 0 Z " fill="#000000" transform="translate(48,152)"/>
<path d="M0 0 C1.98 0.99 1.98 0.99 4 2 C3.01 2 2.02 2 1 2 C0.67 1.34 0.34 0.68 0 0 Z " fill="#000000" transform="translate(148,45)"/>
<path d="M0 0 C0 3 0 3 0 3 Z " fill="#000000" transform="translate(131,123)"/>
<path d="M0 0 C0 3 0 3 0 3 Z " fill="#000000" transform="translate(69,74)"/>
<path d="M0 0 C0.66 0.66 1.32 1.32 2 2 C1.34 2 0.68 2 0 2 C0 1.34 0 0.68 0 0 Z " fill="#000000" transform="translate(94,198)"/>
<path d="M0 0 C2 1 2 1 2 1 Z " fill="#000000" transform="translate(133,181)"/>
<path d="M0 0 C2 1 2 1 2 1 Z " fill="#000000" transform="translate(65,181)"/>
<path d="M0 0 C2 1 2 1 2 1 Z " fill="#000000" transform="translate(137,162)"/>
<path d="M0 0 C2 1 2 1 2 1 Z " fill="#000000" transform="translate(61,162)"/>
<path d="M0 0 C2 1 2 1 2 1 Z " fill="#000000" transform="translate(55,158)"/>
<path d="M0 0 C2 1 2 1 2 1 Z " fill="#000000" transform="translate(84,152)"/>
<path d="M0 0 C2 1 2 1 2 1 Z " fill="#000000" transform="translate(122,149)"/>
<path d="M0 0 C2 1 2 1 2 1 Z " fill="#000000" transform="translate(76,149)"/>
<path d="M0 0 C2 1 2 1 2 1 Z " fill="#000000" transform="translate(124,148)"/>
<path d="M0 0 C2 1 2 1 2 1 Z " fill="#000000" transform="translate(74,148)"/>
<path d="M0 0 C2 1 2 1 2 1 Z " fill="#000000" transform="translate(69,145)"/>
<path d="" fill="#000000" transform="translate(0,0)"/>
<path d="" fill="#000000" transform="translate(0,0)"/>
<path d="M0 0 C2 1 2 1 2 1 Z " fill="#000000" transform="translate(84,136)"/>
<path d="M0 0 C2 1 2 1 2 1 Z " fill="#000000" transform="translate(78,133)"/>
<path d="M0 0 C2 1 2 1 2 1 Z " fill="#000000" transform="translate(75,131)"/>
<path d="" fill="#000000" transform="translate(0,0)"/>
<path d="" fill="#000000" transform="translate(0,0)"/>
<path d="" fill="#000000" transform="translate(0,0)"/>
<path d="" fill="#000000" transform="translate(0,0)"/>
<path d="" fill="#000000" transform="translate(0,0)"/>
<path d="" fill="#000000" transform="translate(0,0)"/>
<path d="" fill="#000000" transform="translate(0,0)"/>
<path d="" fill="#000000" transform="translate(0,0)"/>
<path d="" fill="#000000" transform="translate(0,0)"/>
<path d="" fill="#000000" transform="translate(0,0)"/>
<path d="" fill="#000000" transform="translate(0,0)"/>
<path d="" fill="#000000" transform="translate(0,0)"/>
<path d="" fill="#000000" transform="translate(0,0)"/>
<path d="" fill="#000000" transform="translate(0,0)"/>
<path d="M0 0 C2 1 2 1 2 1 Z " fill="#000000" transform="translate(123,68)"/>
<path d="M0 0 C2 1 2 1 2 1 Z " fill="#000000" transform="translate(120,66)"/>
<path d="" fill="#000000" transform="translate(0,0)"/>
<path d="" fill="#000000" transform="translate(0,0)"/>
<path d="" fill="#000000" transform="translate(0,0)"/>
<path d="M0 0 C2 1 2 1 2 1 Z " fill="#000000" transform="translate(129,54)"/>
<path d="M0 0 C2 1 2 1 2 1 Z " fill="#000000" transform="translate(124,51)"/>
<path d="M0 0 C2 1 2 1 2 1 Z " fill="#000000" transform="translate(74,51)"/>
<path d="M0 0 C2 1 2 1 2 1 Z " fill="#000000" transform="translate(122,50)"/>
<path d="M0 0 C2 1 2 1 2 1 Z " fill="#000000" transform="translate(76,50)"/>
<path d="M0 0 C2 1 2 1 2 1 Z " fill="#000000" transform="translate(143,41)"/>
<path d="M0 0 C2 1 2 1 2 1 Z " fill="#000000" transform="translate(137,37)"/>
<path d="M0 0 C2 1 2 1 2 1 Z " fill="#000000" transform="translate(61,37)"/>
<path d="M0 0 C2 1 2 1 2 1 Z " fill="#000000" transform="translate(55,23)"/>
<path d="M0 0 C2 1 2 1 2 1 Z " fill="#000000" transform="translate(133,18)"/>
<path d="M0 0 C2 1 2 1 2 1 Z " fill="#000000" transform="translate(65,18)"/>
<path d="" fill="#000000" transform="translate(0,0)"/>
<path d="" fill="#000000" transform="translate(0,0)"/>
<path d="" fill="#000000" transform="translate(0,0)"/>
<path d="" fill="#000000" transform="translate(0,0)"/>
<path d="" fill="#000000" transform="translate(0,0)"/>
<path d="" fill="#000000" transform="translate(0,0)"/>
<path d="" fill="#000000" transform="translate(0,0)"/>
<path d="" fill="#000000" transform="translate(0,0)"/>
<path d="" fill="#000000" transform="translate(0,0)"/>
<path d="" fill="#000000" transform="translate(0,0)"/>
<path d="" fill="#000000" transform="translate(0,0)"/>
<path d="" fill="#000000" transform="translate(0,0)"/>
<path d="" fill="#000000" transform="translate(0,0)"/>
<path d="" fill="#000000" transform="translate(0,0)"/>
<path d="" fill="#000000" transform="translate(0,0)"/>
<path d="" fill="#000000" transform="translate(0,0)"/>
<path d="" fill="#000000" transform="translate(0,0)"/>
<path d="" fill="#000000" transform="translate(0,0)"/>
<path d="" fill="#000000" transform="translate(0,0)"/>
<path d="" fill="#000000" transform="translate(0,0)"/>
<path d="" fill="#000000" transform="translate(0,0)"/>
<path d="" fill="#000000" transform="translate(0,0)"/>
<path d="" fill="#000000" transform="translate(0,0)"/>
<path d="" fill="#000000" transform="translate(0,0)"/>
<path d="" fill="#000000" transform="translate(0,0)"/>
<path d="" fill="#000000" transform="translate(0,0)"/>
<path d="" fill="#000000" transform="translate(0,0)"/>
<path d="" fill="#000000" transform="translate(0,0)"/>
<path d="" fill="#000000" transform="translate(0,0)"/>
<path d="" fill="#000000" transform="translate(0,0)"/>
<path d="" fill="#000000" transform="translate(0,0)"/>
<path d="" fill="#000000" transform="translate(0,0)"/>
<path d="" fill="#000000" transform="translate(0,0)"/>
<path d="" fill="#000000" transform="translate(0,0)"/>
<path d="" fill="#000000" transform="translate(0,0)"/>
<path d="" fill="#000000" transform="translate(0,0)"/>
<path d="" fill="#000000" transform="translate(0,0)"/>
<path d="" fill="#000000" transform="translate(0,0)"/>
<path d="" fill="#000000" transform="translate(0,0)"/>
<path d="" fill="#000000" transform="translate(0,0)"/>
<path d="" fill="#000000" transform="translate(0,0)"/>
<path d="" fill="#000000" transform="translate(0,0)"/>
<path d="" fill="#000000" transform="translate(0,0)"/>
<path d="" fill="#000000" transform="translate(0,0)"/>
<path d="" fill="#000000" transform="translate(0,0)"/>
<path d="" fill="#000000" transform="translate(0,0)"/>
<path d="" fill="#000000" transform="translate(0,0)"/>
<path d="" fill="#000000" transform="translate(0,0)"/>
<path d="" fill="#000000" transform="translate(0,0)"/>
<path d="" fill="#000000" transform="translate(0,0)"/>
<path d="" fill="#000000" transform="translate(0,0)"/>
<path d="" fill="#000000" transform="translate(0,0)"/>
<path d="" fill="#000000" transform="translate(0,0)"/>
<path d="" fill="#000000" transform="translate(0,0)"/>
<path d="" fill="#000000" transform="translate(0,0)"/>
<path d="" fill="#000000" transform="translate(0,0)"/>
<path d="" fill="#000000" transform="translate(0,0)"/>
<path d="" fill="#000000" transform="translate(0,0)"/>
<path d="" fill="#000000" transform="translate(0,0)"/>
<path d="" fill="#000000" transform="translate(0,0)"/>
<path d="" fill="#000000" transform="translate(0,0)"/>
<path d="" fill="#000000" transform="translate(0,0)"/>
<path d="" fill="#000000" transform="translate(0,0)"/>
<path d="" fill="#000000" transform="translate(0,0)"/>
<path d="" fill="#000000" transform="translate(0,0)"/>
<path d="" fill="#000000" transform="translate(0,0)"/>
<path d="" fill="#000000" transform="translate(0,0)"/>
<path d="" fill="#000000" transform="translate(0,0)"/>
<path d="" fill="#000000" transform="translate(0,0)"/>
<path d="" fill="#000000" transform="translate(0,0)"/>
<path d="" fill="#000000" transform="translate(0,0)"/>
<path d="" fill="#000000" transform="translate(0,0)"/>
<path d="" fill="#000000" transform="translate(0,0)"/>
<path d="" fill="#000000" transform="translate(0,0)"/>
<path d="" fill="#000000" transform="translate(0,0)"/>
<path d="" fill="#000000" transform="translate(0,0)"/>
<path d="" fill="#000000" transform="translate(0,0)"/>
<path d="" fill="#000000" transform="translate(0,0)"/>
<path d="" fill="#000000" transform="translate(0,0)"/>
<path d="" fill="#000000" transform="translate(0,0)"/>
<path d="" fill="#000000" transform="translate(0,0)"/>
<path d="" fill="#000000" transform="translate(0,0)"/>
<path d="" fill="#000000" transform="translate(0,0)"/>
<path d="" fill="#000000" transform="translate(0,0)"/>
<path d="" fill="#000000" transform="translate(0,0)"/>
<path d="" fill="#000000" transform="translate(0,0)"/>
<path d="" fill="#000000" transform="translate(0,0)"/>
<path d="" fill="#000000" transform="translate(0,0)"/>
<path d="" fill="#000000" transform="translate(0,0)"/>
<path d="" fill="#000000" transform="translate(0,0)"/>
<path d="" fill="#000000" transform="translate(0,0)"/>
<path d="" fill="#000000" transform="translate(0,0)"/>
<path d="" fill="#000000" transform="translate(0,0)"/>
<path d="" fill="#000000" transform="translate(0,0)"/>
<path d="" fill="#000000" transform="translate(0,0)"/>
<path d="" fill="#000000" transform="translate(0,0)"/>
<path d="" fill="#000000" transform="translate(0,0)"/>
<path d="" fill="#000000" transform="translate(0,0)"/>
<path d="" fill="#000000" transform="translate(0,0)"/>
<path d="" fill="#000000" transform="translate(0,0)"/>
<path d="" fill="#000000" transform="translate(0,0)"/>
<path d="" fill="#000000" transform="translate(0,0)"/>
<path d="" fill="#000000" transform="translate(0,0)"/>
<path d="" fill="#000000" transform="translate(0,0)"/>
<path d="" fill="#000000" transform="translate(0,0)"/>
<path d="" fill="#000000" transform="translate(0,0)"/>
<path d="" fill="#000000" transform="translate(0,0)"/>
<path d="" fill="#000000" transform="translate(0,0)"/>
<path d="" fill="#000000" transform="translate(0,0)"/>
<path d="" fill="#000000" transform="translate(0,0)"/>
<path d="" fill="#000000" transform="translate(0,0)"/>
<path d="" fill="#000000" transform="translate(0,0)"/>
<path d="" fill="#000000" transform="translate(0,0)"/>
<path d="" fill="#000000" transform="translate(0,0)"/>
<path d="" fill="#000000" transform="translate(0,0)"/>
<path d="" fill="#000000" transform="translate(0,0)"/>
<path d="" fill="#000000" transform="translate(0,0)"/>
<path d="" fill="#000000" transform="translate(0,0)"/>
<path d="" fill="#000000" transform="translate(0,0)"/>
<path d="" fill="#000000" transform="translate(0,0)"/>
<path d="" fill="#000000" transform="translate(0,0)"/>
<path d="" fill="#000000" transform="translate(0,0)"/>
<path d="" fill="#000000" transform="translate(0,0)"/>
<path d="" fill="#000000" transform="translate(0,0)"/>
<path d="" fill="#000000" transform="translate(0,0)"/>
<path d="" fill="#000000" transform="translate(0,0)"/>
<path d="" fill="#000000" transform="translate(0,0)"/>
<path d="" fill="#000000" transform="translate(0,0)"/>
<path d="" fill="#000000" transform="translate(0,0)"/>
<path d="" fill="#000000" transform="translate(0,0)"/>
<path d="" fill="#000000" transform="translate(0,0)"/>
<path d="" fill="#000000" transform="translate(0,0)"/>
<path d="" fill="#000000" transform="translate(0,0)"/>
<path d="" fill="#000000" transform="translate(0,0)"/>
<path d="" fill="#000000" transform="translate(0,0)"/>
<path d="" fill="#000000" transform="translate(0,0)"/>
<path d="" fill="#000000" transform="translate(0,0)"/>
<path d="" fill="#000000" transform="translate(0,0)"/>
<path d="" fill="#000000" transform="translate(0,0)"/>
<path d="" fill="#000000" transform="translate(0,0)"/>
<path d="" fill="#000000" transform="translate(0,0)"/>
<path d="" fill="#000000" transform="translate(0,0)"/>
<path d="" fill="#000000" transform="translate(0,0)"/>
<path d="" fill="#000000" transform="translate(0,0)"/>
<path d="" fill="#000000" transform="translate(0,0)"/>
<path d="" fill="#000000" transform="translate(0,0)"/>
<path d="" fill="#000000" transform="translate(0,0)"/>
<path d="" fill="#000000" transform="translate(0,0)"/>
<path d="" fill="#000000" transform="translate(0,0)"/>
<path d="" fill="#000000" transform="translate(0,0)"/>
<path d="" fill="#000000" transform="translate(0,0)"/>
<path d="" fill="#000000" transform="translate(0,0)"/>
<path d="" fill="#000000" transform="translate(0,0)"/>
<path d="" fill="#000000" transform="translate(0,0)"/>
<path d="" fill="#000000" transform="translate(0,0)"/>
<path d="" fill="#000000" transform="translate(0,0)"/>
<path d="" fill="#000000" transform="translate(0,0)"/>
<path d="" fill="#000000" transform="translate(0,0)"/>
<path d="" fill="#000000" transform="translate(0,0)"/>
<path d="" fill="#000000" transform="translate(0,0)"/>
<path d="" fill="#000000" transform="translate(0,0)"/>
<path d="" fill="#000000" transform="translate(0,0)"/>
<path d="" fill="#000000" transform="translate(0,0)"/>
<path d="" fill="#000000" transform="translate(0,0)"/>
<path d="" fill="#000000" transform="translate(0,0)"/>
<path d="" fill="#000000" transform="translate(0,0)"/>
<path d="" fill="#000000" transform="translate(0,0)"/>
<path d="" fill="#000000" transform="translate(0,0)"/>
<path d="" fill="#000000" transform="translate(0,0)"/>
<path d="" fill="#000000" transform="translate(0,0)"/>
<path d="" fill="#000000" transform="translate(0,0)"/>
<path d="" fill="#000000" transform="translate(0,0)"/>
<path d="" fill="#000000" transform="translate(0,0)"/>
<path d="" fill="#000000" transform="translate(0,0)"/>
<path d="" fill="#000000" transform="translate(0,0)"/>
<path d="" fill="#000000" transform="translate(0,0)"/>
<path d="" fill="#000000" transform="translate(0,0)"/>
<path d="" fill="#000000" transform="translate(0,0)"/>
<path d="" fill="#000000" transform="translate(0,0)"/>
<path d="" fill="#000000" transform="translate(0,0)"/>
<path d="" fill="#000000" transform="translate(0,0)"/>
<path d="" fill="#000000" transform="translate(0,0)"/>
<path d="" fill="#000000" transform="translate(0,0)"/>
<path d="" fill="#000000" transform="translate(0,0)"/>
<path d="" fill="#000000" transform="translate(0,0)"/>
<path d="" fill="#000000" transform="translate(0,0)"/>
<path d="" fill="#000000" transform="translate(0,0)"/>
<path d="" fill="#000000" transform="translate(0,0)"/>
<path d="" fill="#000000" transform="translate(0,0)"/>
<path d="" fill="#000000" transform="translate(0,0)"/>
<path d="" fill="#000000" transform="translate(0,0)"/>
<path d="" fill="#000000" transform="translate(0,0)"/>
<path d="" fill="#000000" transform="translate(0,0)"/>
<path d="" fill="#000000" transform="translate(0,0)"/>
<path d="" fill="#000000" transform="translate(0,0)"/>
<path d="" fill="#000000" transform="translate(0,0)"/>
<path d="" fill="#000000" transform="translate(0,0)"/>
<path d="" fill="#000000" transform="translate(0,0)"/>
<path d="" fill="#000000" transform="translate(0,0)"/>
<path d="" fill="#000000" transform="translate(0,0)"/>
<path d="" fill="#000000" transform="translate(0,0)"/>
<path d="" fill="#000000" transform="translate(0,0)"/>
<path d="" fill="#000000" transform="translate(0,0)"/>
<path d="" fill="#000000" transform="translate(0,0)"/>
<path d="" fill="#000000" transform="translate(0,0)"/>
<path d="" fill="#000000" transform="translate(0,0)"/>
<path d="" fill="#000000" transform="translate(0,0)"/>
<path d="" fill="#000000" transform="translate(0,0)"/>
<path d="" fill="#000000" transform="translate(0,0)"/>
<path d="" fill="#000000" transform="translate(0,0)"/>
<path d="" fill="#000000" transform="translate(0,0)"/>
<path d="" fill="#000000" transform="translate(0,0)"/>
<path d="" fill="#000000" transform="translate(0,0)"/>
<path d="" fill="#000000" transform="translate(0,0)"/>
<path d="" fill="#000000" transform="translate(0,0)"/>
<path d="" fill="#000000" transform="translate(0,0)"/>
<path d="" fill="#000000" transform="translate(0,0)"/>
<path d="" fill="#000000" transform="translate(0,0)"/>
<path d="" fill="#000000" transform="translate(0,0)"/>
<path d="" fill="#000000" transform="translate(0,0)"/>
<path d="" fill="#000000" transform="translate(0,0)"/>
<path d="" fill="#000000" transform="translate(0,0)"/>
<path d="" fill="#000000" transform="translate(0,0)"/>
<path d="" fill="#000000" transform="translate(0,0)"/>
<path d="" fill="#000000" transform="translate(0,0)"/>
<path d="" fill="#000000" transform="translate(0,0)"/>
<path d="" fill="#000000" transform="translate(0,0)"/>
<path d="" fill="#000000" transform="translate(0,0)"/>
<path d="" fill="#000000" transform="translate(0,0)"/>
<path d="" fill="#000000" transform="translate(0,0)"/>
<path d="" fill="#000000" transform="translate(0,0)"/>
<path d="" fill="#000000" transform="translate(0,0)"/>
<path d="" fill="#000000" transform="translate(0,0)"/>
<path d="" fill="#000000" transform="translate(0,0)"/>
<path d="" fill="#000000" transform="translate(0,0)"/>
<path d="" fill="#000000" transform="translate(0,0)"/>
<path d="" fill="#000000" transform="translate(0,0)"/>
<path d="" fill="#000000" transform="translate(0,0)"/>
<path d="" fill="#000000" transform="translate(0,0)"/>
<path d="" fill="#000000" transform="translate(0,0)"/>
<path d="" fill="#000000" transform="translate(0,0)"/>
<path d="" fill="#000000" transform="translate(0,0)"/>
<path d="" fill="#000000" transform="translate(0,0)"/>
<path d="" fill="#000000" transform="translate(0,0)"/>
<path d="" fill="#000000" transform="translate(0,0)"/>
<path d="" fill="#000000" transform="translate(0,0)"/>
<path d="" fill="#000000" transform="translate(0,0)"/>
<path d="" fill="#000000" transform="translate(0,0)"/>
<path d="" fill="#000000" transform="translate(0,0)"/>
<path d="" fill="#000000" transform="translate(0,0)"/>
<path d="" fill="#000000" transform="translate(0,0)"/>
</svg>
