<?xml version="1.0" encoding="UTF-8"?>
<svg version="1.1" xmlns="http://www.w3.org/2000/svg" width="124" height="124">
<path d="M0 0 C2.625 -0.1875 2.625 -0.1875 5 0 C6.60080151 4.00200378 5.29279692 7.04556236 4 11 C4.74636719 11.10957031 5.49273437 11.21914063 6.26171875 11.33203125 C12.05834143 12.74604335 15.65859029 17.07271767 18.9765625 21.83984375 C25.06361112 32.03746903 29.58352157 42.99878756 34 54 C34.48082031 55.18464844 34.96164063 56.36929688 35.45703125 57.58984375 C38.68025964 66.25725296 39.54313127 74.56658493 36.3125 83.375 C32.47916673 91.72285121 26.68968915 96.7586073 18.1640625 100.1171875 C8.64211241 102.77392913 -1.29323191 101.52805686 -10 97 C-18.20355501 92.10642367 -23.70776453 85.17165314 -26.375 75.9375 C-27.83774161 66.72222783 -26.51343716 57.85684803 -25.25 48.6875 C-25.09273437 47.44548828 -24.93546875 46.20347656 -24.7734375 44.92382812 C-23.35537987 34.52292081 -21.39431278 22.05244533 -14 14 C-10.42765929 11.53438445 -7.36960232 10 -3 10 C-2.814375 8.3603125 -2.814375 8.3603125 -2.625 6.6875 C-2 3 -2 3 0 0 Z M-11 18 C-20.60648856 30.79003419 -23.67574306 57.9204298 -21.59375 73.51171875 C-19.31562481 83.0588618 -14.06457055 89.12189701 -5.94140625 94.31640625 C0.40907093 97.66060249 6.96029984 97.89157152 14 97 C18.8503001 94.95776838 21.23467168 92.03917344 23.3046875 87.31640625 C26.11680211 77.94795703 22.89531613 68.95458598 20 60 C17.28620452 51.48019586 14.9204151 42.95729253 12.92602539 34.24169922 C11.31621706 27.48252913 9.41466936 20.67571469 4.6875 15.4375 C-1.31109192 12.22895083 -6.13919946 13.56187777 -11 18 Z " fill="#D4AC3A" transform="translate(56,6)"/>
<path d="M0 0 C5.10368246 2.02020764 7.82751221 5.56147865 10.04296875 10.5234375 C13.05326969 19.48367599 13.12258533 27.63695264 9 36.1875 C5.24543433 38.69054378 3.45254066 38.64030074 -1 38.1875 C-6.49543408 35.54969164 -9.37682202 31.53836505 -12 26.1875 C-13.89708295 20.18407293 -13.98041949 13.58550417 -11.375 7.8125 C-8.69560918 3.16130397 -5.52012398 0.34500775 0 0 Z M-6 20.1875 C-5.88541307 21.62586751 -5.75790884 23.06320966 -5.625 24.5 C-5.55539063 25.30050781 -5.48578125 26.10101563 -5.4140625 26.92578125 C-5.10435574 29.45974441 -5.10435574 29.45974441 -3 32.1875 C-2.34 32.1875 -1.68 32.1875 -1 32.1875 C-1.66498383 27.79860675 -3.18757677 24.2063515 -5 20.1875 C-5.33 20.1875 -5.66 20.1875 -6 20.1875 Z " fill="#D4AC3A" transform="translate(56,52.8125)"/>
</svg>
