<svg width="30" height="30" viewBox="0 0 30 30" fill="none" xmlns="http://www.w3.org/2000/svg">
<g clip-path="url(#clip0_328_1317)">
<path d="M24.7875 13.7875H9.96248L14.5 8.3375C14.7121 8.08223 14.8142 7.75313 14.7838 7.4226C14.7533 7.09206 14.5927 6.78717 14.3375 6.575C14.0822 6.36283 13.7531 6.26075 13.4226 6.29122C13.092 6.3217 12.7871 6.48223 12.575 6.7375L6.32498 14.2375C6.28293 14.2972 6.24532 14.3598 6.21248 14.425C6.21248 14.4875 6.21248 14.525 6.12498 14.5875C6.06832 14.7308 6.03865 14.8834 6.03748 15.0375C6.03865 15.1916 6.06832 15.3442 6.12498 15.4875C6.12498 15.55 6.12498 15.5875 6.21248 15.65C6.24532 15.7152 6.28293 15.7778 6.32498 15.8375L12.575 23.3375C12.6925 23.4786 12.8397 23.5921 13.006 23.6699C13.1724 23.7476 13.3538 23.7878 13.5375 23.7875C13.8295 23.7881 14.1126 23.6864 14.3375 23.5C14.464 23.3951 14.5687 23.2662 14.6454 23.1208C14.7221 22.9753 14.7693 22.8162 14.7844 22.6525C14.7995 22.4887 14.7821 22.3237 14.7333 22.1666C14.6845 22.0096 14.6052 21.8638 14.5 21.7375L9.96248 16.2875H24.7875C25.119 16.2875 25.4369 16.1558 25.6714 15.9214C25.9058 15.687 26.0375 15.369 26.0375 15.0375C26.0375 14.706 25.9058 14.388 25.6714 14.1536C25.4369 13.9192 25.119 13.7875 24.7875 13.7875Z" fill="#EAEAEA"/>
</g>
<defs>
<clipPath id="clip0_328_1317">
<rect width="30" height="30" fill="white"/>
</clipPath>
</defs>
</svg>
