<svg width="19" height="22" viewBox="0 0 19 22" fill="none" xmlns="http://www.w3.org/2000/svg">
<g clip-path="url(#clip0_328_1382)">
<path d="M0.555542 6.51101V5.11787C0.582078 4.61369 0.781098 4.18911 1.1526 3.84414C1.52411 3.49918 1.96195 3.32669 2.46613 3.32669H4.37673V2.68983C4.37673 2.15911 4.56248 1.708 4.93398 1.33649C5.30549 0.964988 5.7566 0.779236 6.28732 0.779236H12.656C13.1867 0.779236 13.6378 0.964988 14.0093 1.33649C14.3808 1.708 14.5665 2.15911 14.5665 2.68983V3.32669H16.4771C16.9813 3.32669 17.4192 3.49918 17.7907 3.84414C18.1622 4.18911 18.3612 4.61369 18.3877 5.11787V6.51101C18.3877 6.85598 18.2617 7.15451 18.0096 7.40661C17.7575 7.65871 17.459 7.78475 17.114 7.78474V18.6114C17.114 19.3279 16.8685 19.9316 16.3776 20.4225C15.8867 20.9134 15.283 21.1589 14.5665 21.1589H4.37673C3.66025 21.1589 3.05656 20.9134 2.56563 20.4225C2.07471 19.9316 1.82926 19.3279 1.82927 18.6114V7.78474C1.4843 7.78474 1.18577 7.6587 0.93367 7.40661C0.681571 7.15453 0.555528 6.85599 0.555542 6.51101ZM1.82927 6.51101H17.114V5.23728C17.114 5.05153 17.0543 4.89895 16.9349 4.77953C16.8155 4.66011 16.6629 4.6004 16.4771 4.6004H2.46611C2.28036 4.6004 2.12778 4.66011 2.00836 4.77953C1.88894 4.89895 1.82923 5.05153 1.82923 5.23728V6.51101H1.82927ZM3.103 18.6114C3.103 18.9564 3.22904 19.2549 3.48113 19.507C3.73321 19.7591 4.03174 19.8852 4.37673 19.8852H14.5665C14.9115 19.8852 15.21 19.7591 15.4621 19.507C15.7142 19.2549 15.8403 18.9564 15.8403 18.6114V7.78474H3.103V18.6114ZM4.37673 17.9746V9.69533C4.37673 9.50958 4.43643 9.35699 4.55585 9.23758C4.67527 9.11816 4.82786 9.05845 5.01361 9.05845H6.28734C6.47309 9.05845 6.62567 9.11816 6.74509 9.23758C6.86451 9.35699 6.92422 9.50958 6.92422 9.69533V17.9746C6.92422 18.1603 6.86451 18.3129 6.74509 18.4323C6.62567 18.5517 6.47309 18.6114 6.28734 18.6114H5.01361C4.82786 18.6114 4.67527 18.5517 4.55585 18.4323C4.43643 18.3129 4.37673 18.1603 4.37673 17.9746ZM5.01359 17.9746H6.28732V9.69533H5.01359V17.9746ZM5.65045 3.32669H13.2928V2.68983C13.2928 2.50408 13.2331 2.35149 13.1137 2.23207C12.9943 2.11265 12.8417 2.05294 12.6559 2.05294H6.2873C6.10154 2.05294 5.94896 2.11265 5.82954 2.23207C5.71012 2.35149 5.65041 2.50408 5.65041 2.68983V3.32669H5.65045ZM8.19791 17.9746V9.69533C8.19791 9.50958 8.25762 9.35699 8.37704 9.23758C8.49646 9.11816 8.64904 9.05845 8.83479 9.05845H10.1085C10.2943 9.05845 10.4469 9.11816 10.5663 9.23758C10.6857 9.35699 10.7454 9.50958 10.7454 9.69533V17.9746C10.7454 18.1603 10.6857 18.3129 10.5663 18.4323C10.4469 18.5517 10.2943 18.6114 10.1085 18.6114H8.83479C8.64904 18.6114 8.49646 18.5517 8.37704 18.4323C8.25762 18.3129 8.19791 18.1603 8.19791 17.9746ZM8.83477 17.9746H10.1085V9.69533H8.83477V17.9746ZM12.0191 17.9746V9.69533C12.0191 9.50958 12.0788 9.35699 12.1982 9.23758C12.3176 9.11816 12.4702 9.05845 12.656 9.05845H13.9297C14.1155 9.05845 14.268 9.11816 14.3875 9.23758C14.5069 9.35699 14.5666 9.50958 14.5666 9.69533V17.9746C14.5666 18.1603 14.5069 18.3129 14.3875 18.4323C14.268 18.5517 14.1155 18.6114 13.9297 18.6114H12.656C12.4702 18.6114 12.3176 18.5517 12.1982 18.4323C12.0788 18.3129 12.0191 18.1603 12.0191 17.9746ZM12.656 17.9746H13.9297V9.69533H12.656V17.9746Z" fill="#EAEAEA"/>
</g>
<defs>
<clipPath id="clip0_328_1382">
<rect width="17.8333" height="20.381" fill="white" transform="translate(0.555542 0.777771)"/>
</clipPath>
</defs>
</svg>
