<svg width="40" height="40" viewBox="0 0 40 40" fill="none" xmlns="http://www.w3.org/2000/svg">
<path d="M15.5078 21.4844C15.5078 22.6758 15.9811 23.8184 16.8235 24.6608C17.666 25.5033 18.8086 25.9766 20 25.9766C21.1914 25.9766 22.334 25.5033 23.1765 24.6608C24.0189 23.8184 24.4922 22.6758 24.4922 21.4844C24.4922 20.293 24.0189 19.1504 23.1765 18.3079C22.334 17.4655 21.1914 16.9922 20 16.9922C18.8086 16.9922 17.666 17.4655 16.8235 18.3079C15.9811 19.1504 15.5078 20.293 15.5078 21.4844Z" fill="#ECE8F0"/>
<path d="M32.6172 12.5H28.3594C28 12.5 27.6641 12.3438 27.4219 12.0781C25.2031 9.59375 24.3672 8.75 23.4609 8.75H16.7812C15.8672 8.75 14.9688 9.59375 12.7422 12.0859C12.5078 12.3516 12.1641 12.5 11.8125 12.5H11.4922V11.875C11.4922 11.5312 11.2109 11.25 10.8672 11.25H8.83594C8.49219 11.25 8.21094 11.5312 8.21094 11.875V12.5H7.625C6.24219 12.5 5 13.5312 5 14.8984V28.6484C5 30.0156 6.24219 31.25 7.61719 31.25H32.6172C33.9922 31.25 35 30.0156 35 28.6484V14.8984C35 13.5312 33.9922 12.5 32.6172 12.5ZM20.3125 28.1562C16.3828 28.3359 13.1484 25.1016 13.3281 21.1719C13.4844 17.7422 16.2578 14.9688 19.6875 14.8125C23.6172 14.6328 26.8516 17.8672 26.6719 21.7969C26.5156 25.2266 23.7422 28 20.3125 28.1562ZM27.5 17.0312C26.9375 17.0312 26.4844 16.5781 26.4844 16.0156C26.4844 15.4531 26.9375 15 27.5 15C28.0625 15 28.5156 15.4531 28.5156 16.0156C28.5156 16.5781 28.0625 17.0312 27.5 17.0312Z" fill="#ECE8F0"/>
</svg>
