<svg width="22" height="22" viewBox="0 0 22 22" fill="none" xmlns="http://www.w3.org/2000/svg">
<g clip-path="url(#clip0_13_43)">
<path d="M18.9497 11.4457C20.5844 9.04095 22.3633 5.1017 19.778 2.48903C17.1451 -0.172538 13.0854 1.67899 10.6768 3.31077C10.6797 1.8586 10.2612 0.711716 9.55658 -6.10352e-05C9.26663 0.543751 8.98574 1.88657 7.00085 3.84998C4.70576 6.12097 1.94171 9.00185 1.0819 10.7339C0.326167 12.2557 -0.717544 16.1289 1.65111 19.2832L0.583292 20.3507L2.08655 21.8543L3.1612 20.7799C5.43837 22.4264 8.40678 22.3001 11.0022 21.0361C13.351 19.8918 20.4132 12.7544 21.8117 12.2512C21.1618 11.4223 19.8437 11.3696 18.9497 11.4457ZM19.8099 7.61972L18.7629 6.56135L20.0852 5.25338C20.1828 6.01621 20.0605 6.82565 19.8099 7.61972ZM19.0698 3.19007C19.4548 3.57962 19.7103 4.01378 19.8681 4.47492L18.274 6.0514L16.1996 3.95517L17.7937 2.37804C18.2532 2.54047 18.6845 2.80111 19.0698 3.19007ZM10.0285 10.0597L11.5825 8.52258L13.6569 10.6191L12.1029 12.1565L10.0285 10.0597ZM11.6014 12.6525L10.0471 14.1899L7.97297 12.0934L9.52698 10.5559L11.6014 12.6525ZM12.084 8.0262L13.638 6.48912L15.7124 8.58531L14.1584 10.1227L12.084 8.0262ZM14.1399 5.99249L15.6939 4.45567L17.768 6.5519L16.2136 8.08898L14.1399 5.99249ZM17.0172 2.15285L15.6952 3.46081L14.6479 2.40176C15.4449 2.16002 16.2557 2.04641 17.0172 2.15285ZM13.9306 2.67255L15.1862 3.94211L13.6322 5.47953L11.8793 3.70711C12.4996 3.32576 13.2003 2.95542 13.9306 2.67255ZM10.6016 4.59369C10.8079 4.43814 11.0354 4.27477 11.2834 4.10814L13.1277 5.97264L11.5737 7.51006L10.2335 6.15586C10.4041 5.61106 10.5264 5.08903 10.6016 4.59369ZM9.9598 6.88229L11.0846 8.01907L9.53085 9.55615L8.97268 8.99184C9.38149 8.26154 9.70728 7.55724 9.9598 6.88229ZM8.60594 9.61828C8.60594 9.61828 8.60624 9.61733 8.60659 9.61669L9.04401 10.059L7.76303 11.3263C7.97585 10.7759 8.2499 10.2045 8.60594 9.61828ZM7.48446 17.3269C7.48446 17.3269 7.47174 17.2967 7.45193 17.2387L7.53362 17.3211C7.51797 17.3233 7.49976 17.3243 7.48446 17.3269ZM7.13654 15.5073C7.07338 14.7542 7.09783 13.7929 7.3559 12.7042L7.47045 12.5906L9.54455 14.6879L7.91698 16.2969L7.13654 15.5073ZM8.825 17.2146L8.42144 16.8065L10.0487 15.1972L11.5841 16.7499C10.5586 17.0747 9.60411 17.1665 8.825 17.2146ZM13.4129 15.9015C13.0383 16.1283 12.665 16.3141 12.2969 16.4648L10.5586 14.707L12.1126 13.1696L14.1216 15.2007C13.8906 15.4289 13.6534 15.6639 13.4129 15.9015ZM14.6232 14.7041L12.6142 12.6736L14.1682 11.1362L16.1775 13.1673C15.7519 13.5878 15.2171 14.117 14.6232 14.7041ZM16.7812 12.5685C16.75 12.6001 16.7129 12.6369 16.6787 12.6703L14.6697 10.6402L16.224 9.10248L18.0686 10.9673C17.5587 11.708 17.0706 12.2831 16.7812 12.5685ZM16.7217 8.60258L18.276 7.06482L19.5316 8.33442C19.2403 9.06179 18.8628 9.75827 18.4742 10.3743L16.7217 8.60258Z" fill="#E07A4F"/>
</g>
<defs>
<clipPath id="clip0_13_43">
<rect width="22" height="22" fill="white"/>
</clipPath>
</defs>
</svg>
