<svg width="40" height="40" viewBox="0 0 40 40" fill="none" xmlns="http://www.w3.org/2000/svg">
<circle cx="20" cy="20" r="20" fill="black"/>
<g clip-path="url(#clip0_328_1682)">
<path fill-rule="evenodd" clip-rule="evenodd" d="M12.3347 12.3347C12.7811 11.8884 13.5047 11.8884 13.951 12.3347L20 18.3838L26.0491 12.3347C26.4953 11.8884 27.219 11.8884 27.6653 12.3347C28.1116 12.7811 28.1116 13.5047 27.6653 13.951L21.6162 20L27.6653 26.0491C28.1116 26.4953 28.1116 27.219 27.6653 27.6653C27.219 28.1116 26.4953 28.1116 26.0491 27.6653L20 21.6162L13.951 27.6653C13.5047 28.1116 12.7811 28.1116 12.3347 27.6653C11.8884 27.219 11.8884 26.4953 12.3347 26.0491L18.3838 20L12.3347 13.951C11.8884 13.5047 11.8884 12.7811 12.3347 12.3347Z" fill="#EAE9EE"/>
</g>
<defs>
<clipPath id="clip0_328_1682">
<rect width="16" height="16" fill="white" transform="translate(12 12)"/>
</clipPath>
</defs>
</svg>
