<svg width="31" height="31" viewBox="0 0 31 31" fill="none" xmlns="http://www.w3.org/2000/svg">
<g clip-path="url(#clip0_13_40)">
<path d="M14.7272 1.5762L14.7331 1.57934C14.4203 1.49325 13.9925 1.70099 13.5807 2.56027C13.403 2.93034 13.2465 3.46765 13.3573 4.09917C9.00177 4.40313 8.38795 9.64712 7.6785 15.7169C7.61842 16.2238 7.55948 16.7326 7.49721 17.2367C6.96855 21.5493 9.3575 23.9559 10.8286 25.0076C12.4776 26.1853 14.5756 26.8199 16.44 26.7056C18.3039 26.5913 20.1989 25.7121 21.5072 24.354C22.6728 23.1408 24.3823 20.4832 22.7137 16.3041C22.5171 15.8119 22.322 15.3191 22.1283 14.8257C20.0867 9.63718 18.2892 5.07213 14.8978 4.22596L14.9402 3.8909C15.0337 3.36003 15.167 2.83696 15.3391 2.32614C15.545 1.7118 14.7272 1.5762 14.7272 1.5762ZM19.055 16.6669C21.3457 22.402 19.7507 25.7425 16.3382 25.9525C12.9258 26.1608 7.8288 23.23 8.55398 17.3095C9.2788 11.3904 9.65983 5.08365 13.5051 4.84776C17.3494 4.61244 16.7626 10.9318 19.055 16.6669Z" fill="#D4AC3A"/>
<path d="M10.9143 18.2956C11.3229 21.3345 13.9788 23.2315 15.2821 22.6526C16.6035 22.0773 17.0484 19.9866 16.7906 17.9355C16.4974 15.8864 15.5024 13.8844 14.0497 13.4776C12.614 13.0667 10.5075 15.2551 10.9143 18.2956ZM12.5621 17.7955C12.7265 18.0927 12.9774 18.9642 13.316 19.6131C13.6322 20.2819 13.9653 20.7929 13.9124 21.1977C13.8955 21.643 13.0103 21.4877 12.514 19.9288C12.0745 18.3959 12.4252 17.4629 12.5621 17.7955Z" fill="#D4AC3A"/>
</g>
<defs>
<clipPath id="clip0_13_40">
<rect width="22" height="22" fill="white" transform="translate(0 16.853) rotate(-50)"/>
</clipPath>
</defs>
</svg>
