<svg width="16" height="16" viewBox="0 0 16 16" fill="none" xmlns="http://www.w3.org/2000/svg">
<path d="M13.842 8.92112C13.2014 7.99077 12.8747 7.29269 12.7876 6.13115C12.7223 5.26309 13.0872 4.26069 13.0872 4.26069C12.635 4.56192 12.63 4.52965 12.3314 4.77637C10.7774 6.06075 10.3714 7.34613 10.3239 7.51232C10.3206 7.52411 10.3188 7.53088 10.3188 7.53088L10.3239 7.51232C10.3239 7.51232 11.5384 2.76075 8.15743 0.548107C7.87685 0.364533 7.22965 0 7.22965 0C7.22965 0 8.90832 4.11541 5.90277 6.55685C5.31119 4.1424 2.1881 4.11269 2.1881 4.11269C2.1881 4.11269 2.4281 4.95392 2.46666 5.15291C2.97279 7.77685 1.42149 8.6072 1.10639 11.0877C1.14234 10.803 1.12805 10.9163 1.10618 11.0892C1.10607 11.0898 1.10597 11.0905 1.10597 11.0911C1.10602 11.0908 1.10602 11.0906 1.10607 11.0902C1.10597 11.091 1.10591 11.0917 1.10586 11.0923C0.859942 13.0396 1.78783 14.5477 3.21375 15.5653C3.28031 14.878 3.56207 14.1962 3.95365 13.6273C4.39679 12.9837 4.62293 12.5008 4.68293 11.6973C4.72773 11.0968 4.47562 10.4033 4.47562 10.4033C4.78805 10.6118 4.79199 10.5895 4.99845 10.7602C5.87178 11.482 6.22095 12.2043 6.33887 12.5115C6.34282 12.5091 6.34687 12.5068 6.35114 12.5044C6.20218 11.8321 5.78229 9.21189 7.88591 7.8352C8.07989 7.70843 8.52768 7.45621 8.52768 7.45621C8.52768 7.45621 7.33642 10.061 9.95903 12.1768C9.90048 11.3109 10.2308 10.5114 10.849 9.89531C11.1848 9.56091 11.7901 9.40021 11.7901 9.40021C11.7901 9.40021 11.6238 9.98251 11.5973 10.12C11.2471 11.9356 12.7714 13.3474 12.4457 15.0672C12.3846 15.3895 12.2972 15.7024 12.1752 15.9999H12.3208C13.0939 15.5871 13.8114 15.0502 14.3028 14.3135C15.4208 12.6373 14.9183 10.4844 13.842 8.92112Z" fill="black"/>
</svg>
