<svg width="292" height="313" viewBox="0 0 292 313" fill="none" xmlns="http://www.w3.org/2000/svg">
<path d="M0 15C0 6.71573 6.71573 0 15 0H70V1.5H16.75C8.46573 1.5 1.75 8.21573 1.75 16.5V60H0V15Z" fill="white"/>
<path d="M292 15C292 6.71573 285.284 0 277 0H222V1.5H275.25C283.534 1.5 290.25 8.21573 290.25 16.5V60H292V15Z" fill="white"/>
<path d="M0 298C0 306.284 6.71573 313 15 313H70V311.5H16.75C8.46573 311.5 1.75 304.784 1.75 296.5V253H0V298Z" fill="white"/>
<path d="M292 298C292 306.284 285.284 313 277 313H222V311.5H275.25C283.534 311.5 290.25 304.784 290.25 296.5V253H292V298Z" fill="white"/>
</svg>
