<svg width="15" height="15" viewBox="0 0 15 15" fill="none" xmlns="http://www.w3.org/2000/svg">
<path d="M8.83831 13.1771C8.54185 13.4465 8.2124 13.7343 8.00063 13.7991C7.75048 13.7241 7.34235 13.3451 6.74539 12.7908C6.64402 12.6967 6.53637 12.5968 6.42178 12.4911C4.20353 10.4453 1.8236 7.45173 1.79652 5.18518C1.78725 4.40977 2.04671 3.77749 2.58969 3.25215C3.29586 2.56899 4.21723 2.19276 5.18414 2.19276C6.13401 2.19276 7.03734 2.55179 7.72783 3.20374C7.88123 3.34858 8.12102 3.34858 8.27447 3.20374C8.96507 2.55179 9.86852 2.19276 10.8184 2.19276C11.7853 2.19276 12.7067 2.56899 13.4128 3.25211C14.5307 4.33365 14.4686 5.96796 13.2283 8.10965C13.1181 8.29992 13.183 8.5435 13.3733 8.6537C13.5636 8.76394 13.8072 8.69901 13.9174 8.5087C15.72 5.39588 14.9391 3.62079 13.9665 2.67983C13.1109 1.85227 11.9929 1.39648 10.8183 1.39648C9.78587 1.39648 8.79849 1.74569 8.00111 2.38649C7.20384 1.74565 6.21654 1.39648 5.1841 1.39648C4.00952 1.39648 2.89151 1.85227 2.036 2.67987C1.33691 3.35627 0.988466 4.20235 1.00029 5.19466C1.03819 8.36553 4.74631 12.0291 5.88191 13.0765C5.99582 13.1815 6.1028 13.2808 6.20356 13.3744C7.03579 14.1471 7.45355 14.5349 7.94923 14.6001C7.96643 14.6024 7.98379 14.6035 8.00111 14.6035C8.01843 14.6035 8.03574 14.6024 8.05294 14.6001C8.45144 14.5478 8.81036 14.2783 9.37372 13.7665C9.53644 13.6186 9.54854 13.3668 9.40067 13.2041C9.25284 13.0414 9.00106 13.0293 8.83831 13.1771Z" fill="#6A8AC3"/>
<path d="M13.6423 9.30442H12.3636V8.02585C12.3636 7.806 12.1854 7.62772 11.9655 7.62772H10.3644C10.1445 7.62772 9.96626 7.806 9.96626 8.02585V9.30442H8.68756C8.46767 9.30442 8.28943 9.48271 8.28943 9.70256V11.3038C8.28943 11.5237 8.46767 11.702 8.68756 11.702H9.96626V12.9805C9.96626 13.2004 10.1445 13.3787 10.3644 13.3787H11.9655C12.1854 13.3787 12.3636 13.2004 12.3636 12.9805V11.702H13.6423C13.8622 11.702 14.0405 11.5237 14.0405 11.3038V9.70256C14.0405 9.48267 13.8622 9.30442 13.6423 9.30442ZM13.2442 10.9057H11.9655C11.7456 10.9057 11.5674 11.084 11.5674 11.3038V12.5824H10.7625V11.3038C10.7625 11.084 10.5843 10.9057 10.3644 10.9057H9.0857V10.1007H10.3644C10.5843 10.1007 10.7625 9.92241 10.7625 9.70256V8.42399H11.5674V9.70256C11.5674 9.92241 11.7456 10.1007 11.9655 10.1007H13.2442V10.9057Z" fill="#6A8AC3"/>
</svg>
