<svg width="20" height="20" viewBox="0 0 20 20" fill="none" xmlns="http://www.w3.org/2000/svg">
<g clip-path="url(#clip0_322_767)">
<path d="M17.0755 2.93327C13.1727 -0.974358 6.84109 -0.978243 2.93341 2.92454C-0.974224 6.82743 -0.978157 13.1591 2.92473 17.0667C6.82751 20.9744 13.1592 20.9783 17.0669 17.0754C20.9745 13.1726 20.9784 6.8409 17.0755 2.93327ZM11.3964 16.3455C11.3964 16.4998 11.2713 16.6247 11.1171 16.6247H8.88315C8.72895 16.6247 8.60391 16.4998 8.60391 16.3455V8.05243C8.60391 7.89813 8.72895 7.77318 8.88315 7.77318H11.1171C11.2713 7.77318 11.3964 7.89808 11.3964 8.05243V16.3455ZM10.0001 6.61427C9.10715 6.61427 8.38059 5.88781 8.38059 4.99477C8.38059 4.10182 9.1071 3.37521 10.0001 3.37521C10.8932 3.37521 11.6197 4.10177 11.6197 4.99477C11.6197 5.88781 10.8931 6.61427 10.0001 6.61427Z" fill="black"/>
</g>
<defs>
<clipPath id="clip0_322_767">
<rect width="20" height="20" fill="white"/>
</clipPath>
</defs>
</svg>
