<?xml version="1.0" encoding="UTF-8"?>
<svg version="1.1" xmlns="http://www.w3.org/2000/svg" width="400" height="400">
<path d="M0 0 C5.28 0 10.56 0 16 0 C16 0.66 16 1.32 16 2 C17.32 2 18.64 2 20 2 C20 2.66 20 3.32 20 4 C20.99 4.33 21.98 4.66 23 5 C23 5.66 23 6.32 23 7 C23.66 7 24.32 7 25 7 C25 10.63 25 14.26 25 18 C24.34 18 23.68 18 23 18 C23 18.66 23 19.32 23 20 C22.34 20 21.68 20 21 20 C21 20.66 21 21.32 21 22 C20.01 22 19.02 22 18 22 C18 22.66 18 23.32 18 24 C16.02 24 14.04 24 12 24 C12 24.66 12 25.32 12 26 C10.68 26 9.36 26 8 26 C8 26.66 8 27.32 8 28 C5.35261084 29.4606285 4.10551666 30 1 30 C1 30.66 1 31.32 1 32 C0.34 32 -0.32 32 -1 32 C-1 32.66 -1 33.32 -1 34 C-1.66 34 -2.32 34 -3 34 C-3 34.66 -3 35.32 -3 36 C-3.66 36 -4.32 36 -5 36 C-5 36.66 -5 37.32 -5 38 C-5.66 38 -6.32 38 -7 38 C-7.37125 39.0209375 -7.37125 39.0209375 -7.75 40.0625 C-9.24197908 43.56865083 -11.06835511 46.71620368 -13 50 C-13.66 50 -14.32 50 -15 50 C-15.2165625 51.0828125 -15.2165625 51.0828125 -15.4375 52.1875 C-15.95833333 54.79166667 -16.47916667 57.39583333 -17 60 C-17.66 60 -18.32 60 -19 60 C-19 61.98 -19 63.96 -19 66 C-19.66 66 -20.32 66 -21 66 C-21 68.64 -21 71.28 -21 74 C-21.66 74 -22.32 74 -23 74 C-22.98839844 74.71027344 -22.97679687 75.42054687 -22.96484375 76.15234375 C-22.95582031 77.07144531 -22.94679687 77.99054688 -22.9375 78.9375 C-22.92589844 79.85402344 -22.91429687 80.77054687 -22.90234375 81.71484375 C-23 84 -23 84 -24 85 C-24.07226502 86.85287502 -24.0838122 88.70833878 -24.0625 90.5625 C-24.05347656 91.57441406 -24.04445312 92.58632812 -24.03515625 93.62890625 C-24.02355469 94.41136719 -24.01195312 95.19382812 -24 96 C-23.01 96 -22.02 96 -21 96 C-21 95.34 -21 94.68 -21 94 C-19.68 94 -18.36 94 -17 94 C-17 93.34 -17 92.68 -17 92 C-13.17679443 90.57741188 -10.08718695 89.75957724 -6 90 C-6 89.34 -6 88.68 -6 88 C-1.126739 86.4087311 2.80790596 85.78807779 8 86 C8 85.34 8 84.68 8 84 C11.3 84 14.6 84 18 84 C18 83.34 18 82.68 18 82 C22.95 82 27.9 82 33 82 C33 81.34 33 80.68 33 80 C40.92 80 48.84 80 57 80 C57 80.66 57 81.32 57 82 C60.96 82 64.92 82 69 82 C69 82.66 69 83.32 69 84 C71.31 84 73.62 84 76 84 C76 84.66 76 85.32 76 86 C77.98 86 79.96 86 82 86 C82 86.66 82 87.32 82 88 C83.32 88 84.64 88 86 88 C86 88.66 86 89.32 86 90 C87.32 90 88.64 90 90 90 C90 90.66 90 91.32 90 92 C91.32 92 92.64 92 94 92 C94 92.66 94 93.32 94 94 C94.99 94 95.98 94 97 94 C97 94.66 97 95.32 97 96 C97.99 96 98.98 96 100 96 C100 96.66 100 97.32 100 98 C101.65 98.66 103.3 99.32 105 100 C105 100.66 105 101.32 105 102 C105.66 102 106.32 102 107 102 C107 102.66 107 103.32 107 104 C107.66 104 108.32 104 109 104 C109 104.66 109 105.32 109 106 C109.66 106 110.32 106 111 106 C111 106.66 111 107.32 111 108 C111.66 108 112.32 108 113 108 C113 108.66 113 109.32 113 110 C113.66 110 114.32 110 115 110 C115.66 111.65 116.32 113.3 117 115 C117.66 115 118.32 115 119 115 C119 115.99 119 116.98 119 118 C119.66 118 120.32 118 121 118 C121 118.99 121 119.98 121 121 C121.66 121 122.32 121 123 121 C123 121.99 123 122.98 123 124 C123.66 124 124.32 124 125 124 C125 125.32 125 126.64 125 128 C125.66 128 126.32 128 127 128 C127 129.32 127 130.64 127 132 C127.66 132 128.32 132 129 132 C130.60355101 135.50776784 131.22036864 138.14354879 131 142 C131.66 142 132.32 142 133 142 C134.7479503 147.24385089 135.19392201 151.47322267 135 157 C135.66 157 136.32 157 137 157 C137.06058594 157.99902344 137.12117188 158.99804688 137.18359375 160.02734375 C137.30927734 161.96287109 137.30927734 161.96287109 137.4375 163.9375 C137.51871094 165.22527344 137.59992188 166.51304687 137.68359375 167.83984375 C137.64919188 170.86023957 137.64919188 170.86023957 139 172 C139.08748207 173.92667507 139.10697334 175.85651861 139.09765625 177.78515625 C139.09443359 178.95498047 139.09121094 180.12480469 139.08789062 181.33007812 C139.07951172 182.56177734 139.07113281 183.79347656 139.0625 185.0625 C139.05798828 186.29806641 139.05347656 187.53363281 139.04882812 188.80664062 C139.03699608 191.87114117 139.02051173 194.93554721 139 198 C138.34 198 137.68 198 137 198 C137 203.28 137 208.56 137 214 C136.34 214 135.68 214 135 214 C135 217.63 135 221.26 135 225 C134.34 225 133.68 225 133 225 C133 227.64 133 230.28 133 233 C132.34 233 131.68 233 131 233 C131 235.64 131 238.28 131 241 C130.34 241 129.68 241 129 241 C129 242.98 129 244.96 129 247 C128.34 247 127.68 247 127 247 C127 248.98 127 250.96 127 253 C126.34 253 125.68 253 125 253 C125 254.98 125 256.96 125 259 C124.34 259 123.68 259 123 259 C123.061875 260.07314453 123.061875 260.07314453 123.125 261.16796875 C122.98639687 264.30819586 122.22896491 266.43211348 121 269.3125 C120.62875 270.19550781 120.2575 271.07851563 119.875 271.98828125 C119.58625 272.65214844 119.2975 273.31601562 119 274 C118.34 274 117.68 274 117 274 C117 275.65 117 277.3 117 279 C116.34 279 115.68 279 115 279 C114.855625 279.7425 114.71125 280.485 114.5625 281.25 C114.09812508 283.52027739 113.58136431 285.75759479 113 288 C112.34 288 111.68 288 111 288 C111 289.32 111 290.64 111 292 C110.34 292 109.68 292 109 292 C109 293.32 109 294.64 109 296 C108.34 296 107.68 296 107 296 C107 297.32 107 298.64 107 300 C106.34 300 105.68 300 105 300 C104.855625 300.598125 104.71125 301.19625 104.5625 301.8125 C104.1127561 303.56150404 103.57107659 305.28677023 103 307 C102.34 307 101.68 307 101 307 C101 307.99 101 308.98 101 310 C100.34 310 99.68 310 99 310 C98.855625 310.61875 98.71125 311.2375 98.5625 311.875 C98 314 98 314 97 316 C96.34 316 95.68 316 95 316 C94.855625 316.61875 94.71125 317.2375 94.5625 317.875 C94 320 94 320 93 322 C92.34 322 91.68 322 91 322 C91 322.99 91 323.98 91 325 C90.34 325 89.68 325 89 325 C89 325.99 89 326.98 89 328 C88.34 328 87.68 328 87 328 C87 328.66 87 329.32 87 330 C86.34 330 85.68 330 85 330 C84.814375 330.680625 84.62875 331.36125 84.4375 332.0625 C82.69827715 335.61656408 80.42103843 337.76530492 77.55859375 340.44921875 C75.89969455 341.93510225 75.89969455 341.93510225 75 344 C74.34 344 73.68 344 73 344 C73 344.66 73 345.32 73 346 C71.5390625 347.5078125 71.5390625 347.5078125 69.625 349.125 C68.99851562 349.66382813 68.37203125 350.20265625 67.7265625 350.7578125 C66 352 66 352 64 352 C64 352.66 64 353.32 64 354 C63.01 354 62.02 354 61 354 C61 354.66 61 355.32 61 356 C59.35 356.66 57.7 357.32 56 358 C56 358.66 56 359.32 56 360 C55.01 360 54.02 360 53 360 C53 360.66 53 361.32 53 362 C51.68 362 50.36 362 49 362 C49 362.66 49 363.32 49 364 C48.01 364 47.02 364 46 364 C46 364.66 46 365.32 46 366 C44.35 366 42.7 366 41 366 C41 366.66 41 367.32 41 368 C39.68 368 38.36 368 37 368 C37 368.66 37 369.32 37 370 C35.02 370 33.04 370 31 370 C31 370.66 31 371.32 31 372 C28.36 372 25.72 372 23 372 C23 372.66 23 373.32 23 374 C13.1 374 3.2 374 -7 374 C-7 373.34 -7 372.68 -7 372 C-9.97 372 -12.94 372 -16 372 C-16 371.34 -16 370.68 -16 370 C-17.98 370 -19.96 370 -22 370 C-22 369.34 -22 368.68 -22 368 C-23.65 368 -25.3 368 -27 368 C-27 367.34 -27 366.68 -27 366 C-28.65 366 -30.3 366 -32 366 C-32 365.34 -32 364.68 -32 364 C-34.64 364 -37.28 364 -40 364 C-40 364.66 -40 365.32 -40 366 C-43.37097383 367.49821059 -45.20442119 368 -49 368 C-49 368.66 -49 369.32 -49 370 C-50.98 370 -52.96 370 -55 370 C-55 370.66 -55 371.32 -55 372 C-57.05078125 372.22786458 -59.1015625 372.45572917 -61.15234375 372.68359375 C-63.01140229 372.81886614 -63.01140229 372.81886614 -64 374 C-66.29151417 374.08790975 -68.58572524 374.10694038 -70.87890625 374.09765625 C-71.90889992 374.09553383 -71.90889992 374.09553383 -72.95970154 374.09336853 C-75.16067801 374.08775479 -77.36155409 374.07520007 -79.5625 374.0625 C-81.05143083 374.05748676 -82.54036324 374.05292355 -84.02929688 374.04882812 C-87.68623075 374.03778093 -91.34310558 374.02050713 -95 374 C-95 373.34 -95 372.68 -95 372 C-97.64 372 -100.28 372 -103 372 C-103 371.34 -103 370.68 -103 370 C-104.65 370 -106.3 370 -108 370 C-108 369.34 -108 368.68 -108 368 C-109.65 368 -111.3 368 -113 368 C-113 367.34 -113 366.68 -113 366 C-114.32 366 -115.64 366 -117 366 C-117 365.34 -117 364.68 -117 364 C-118.32 364 -119.64 364 -121 364 C-121 363.34 -121 362.68 -121 362 C-121.99 362 -122.98 362 -124 362 C-124 361.34 -124 360.68 -124 360 C-124.99 360 -125.98 360 -127 360 C-127 359.34 -127 358.68 -127 358 C-127.99 358 -128.98 358 -130 358 C-130 357.34 -130 356.68 -130 356 C-130.99 356 -131.98 356 -133 356 C-133 355.34 -133 354.68 -133 354 C-133.66 354 -134.32 354 -135 354 C-135 353.34 -135 352.68 -135 352 C-136.65 351.34 -138.3 350.68 -140 350 C-140 349.34 -140 348.68 -140 348 C-140.58265625 347.7421875 -141.1653125 347.484375 -141.765625 347.21875 C-144.1802903 345.90165983 -145.81740177 344.44911616 -147.75 342.5 C-148.36359375 341.8915625 -148.9771875 341.283125 -149.609375 340.65625 C-151 339 -151 339 -151 337 C-151.66 337 -152.32 337 -153 337 C-153.66 335.35 -154.32 333.7 -155 332 C-155.66 332 -156.32 332 -157 332 C-157.66 330.35 -158.32 328.7 -159 327 C-159.66 327 -160.32 327 -161 327 C-161 326.01 -161 325.02 -161 324 C-161.66 324 -162.32 324 -163 324 C-167 318.58823529 -167 318.58823529 -167 316 C-167.66 316 -168.32 316 -169 316 C-169 314.68 -169 313.36 -169 312 C-169.66 312 -170.32 312 -171 312 C-171 311.01 -171 310.02 -171 309 C-171.66 309 -172.32 309 -173 309 C-173 308.01 -173 307.02 -173 306 C-173.66 306 -174.32 306 -175 306 C-175 304.68 -175 303.36 -175 302 C-175.66 302 -176.32 302 -177 302 C-178.4606285 299.35261084 -179 298.10551666 -179 295 C-179.66 295 -180.32 295 -181 295 C-181 293.68 -181 292.36 -181 291 C-181.66 291 -182.32 291 -183 291 C-183 289.35 -183 287.7 -183 286 C-183.66 286 -184.32 286 -185 286 C-185 284.68 -185 283.36 -185 282 C-185.66 282 -186.32 282 -187 282 C-187 280.68 -187 279.36 -187 278 C-187.66 278 -188.32 278 -189 278 C-189 276.35 -189 274.7 -189 273 C-189.66 273 -190.32 273 -191 273 C-191 271.35 -191 269.7 -191 268 C-191.66 268 -192.32 268 -193 268 C-193 266.02 -193 264.04 -193 262 C-193.66 262 -194.32 262 -195 262 C-195 260.35 -195 258.7 -195 257 C-195.66 257 -196.32 257 -197 257 C-197 255.02 -197 253.04 -197 251 C-197.66 251 -198.32 251 -199 251 C-199 249.02 -199 247.04 -199 245 C-199.66 245 -200.32 245 -201 245 C-201 242.69 -201 240.38 -201 238 C-201.66 238 -202.32 238 -203 238 C-203.144375 236.865625 -203.28875 235.73125 -203.4375 234.5625 C-203.61171478 231.19222799 -203.61171478 231.19222799 -205 230 C-205.14115161 227.32941149 -205.04247107 224.67567762 -205 222 C-205.66 222 -206.32 222 -207 222 C-207.06058594 221.21753906 -207.12117188 220.43507812 -207.18359375 219.62890625 C-207.26738281 218.61699219 -207.35117188 217.60507813 -207.4375 216.5625 C-207.55931641 215.04849609 -207.55931641 215.04849609 -207.68359375 213.50390625 C-207.73211468 211.06359221 -207.73211468 211.06359221 -209 210 C-209.14452718 208.52492882 -209.22694925 207.0436396 -209.28125 205.5625 C-209.31863281 204.66789063 -209.35601562 203.77328125 -209.39453125 202.8515625 C-209.46484375 200.95052083 -209.53515625 199.04947917 -209.60546875 197.1484375 C-209.64285156 196.25382813 -209.68023437 195.35921875 -209.71875 194.4375 C-209.74904297 193.61121094 -209.77933594 192.78492188 -209.81054688 191.93359375 C-209.79401659 189.99438844 -209.79401659 189.99438844 -211 189 C-211.09851171 187.16884117 -211.12972629 185.33380067 -211.125 183.5 C-211.12757813 182.4996875 -211.13015625 181.499375 -211.1328125 180.46875 C-211 178 -211 178 -210 177 C-209.84417697 175.65984779 -209.74955858 174.31241097 -209.68359375 172.96484375 C-209.64169922 172.15595703 -209.59980469 171.34707031 -209.55664062 170.51367188 C-209.51732422 169.66353516 -209.47800781 168.81339844 -209.4375 167.9375 C-209.39431641 167.08349609 -209.35113281 166.22949219 -209.30664062 165.34960938 C-209.20023298 163.23327963 -209.09958269 161.11666187 -209 159 C-208.34 159 -207.68 159 -207 159 C-207 156.03 -207 153.06 -207 150 C-206.34 150 -205.68 150 -205 150 C-205 147.69 -205 145.38 -205 143 C-204.34 143 -203.68 143 -203 143 C-203 141.02 -203 139.04 -203 137 C-202.34 137 -201.68 137 -201 137 C-201 135.35 -201 133.7 -201 132 C-200.34 132 -199.68 132 -199 132 C-199 130.68 -199 129.36 -199 128 C-198.34 128 -197.68 128 -197 128 C-197 126.68 -197 125.36 -197 124 C-196.34 124 -195.68 124 -195 124 C-195 123.01 -195 122.02 -195 121 C-194.34 121 -193.68 121 -193 121 C-193 120.01 -193 119.02 -193 118 C-192.34 118 -191.68 118 -191 118 C-191 117.01 -191 116.02 -191 115 C-190.34 115 -189.68 115 -189 115 C-188.34 113.35 -187.68 111.7 -187 110 C-186.34 110 -185.68 110 -185 110 C-185 109.34 -185 108.68 -185 108 C-184.34 108 -183.68 108 -183 108 C-183 107.34 -183 106.68 -183 106 C-182.34 106 -181.68 106 -181 106 C-181 105.34 -181 104.68 -181 104 C-180.34 104 -179.68 104 -179 104 C-179 103.34 -179 102.68 -179 102 C-178.34 102 -177.68 102 -177 102 C-177 101.34 -177 100.68 -177 100 C-174.525 99.01 -174.525 99.01 -172 98 C-172 97.34 -172 96.68 -172 96 C-171.01 96 -170.02 96 -169 96 C-169 95.34 -169 94.68 -169 94 C-168.01 94 -167.02 94 -166 94 C-166 93.34 -166 92.68 -166 92 C-163.35261084 90.5393715 -162.10551666 90 -159 90 C-159 89.34 -159 88.68 -159 88 C-157.35 88 -155.7 88 -154 88 C-154 87.34 -154 86.68 -154 86 C-152.35 86 -150.7 86 -149 86 C-149 85.34 -149 84.68 -149 84 C-146.69 84 -144.38 84 -142 84 C-142 83.34 -142 82.68 -142 82 C-138.37 82 -134.74 82 -131 82 C-131 81.34 -131 80.68 -131 80 C-121.1 80 -111.2 80 -101 80 C-101 80.66 -101 81.32 -101 82 C-96.71 82 -92.42 82 -88 82 C-88 82.66 -88 83.32 -88 84 C-85.03 84 -82.06 84 -79 84 C-79 84.66 -79 85.32 -79 86 C-76.36 86 -73.72 86 -71 86 C-71 86.66 -71 87.32 -71 88 C-69.02 88 -67.04 88 -65 88 C-65 88.66 -65 89.32 -65 90 C-63.02 90 -61.04 90 -59 90 C-59 90.66 -59 91.32 -59 92 C-57.68 92 -56.36 92 -55 92 C-55 92.66 -55 93.32 -55 94 C-53.35 94 -51.7 94 -50 94 C-50 94.66 -50 95.32 -50 96 C-49.01 96 -48.02 96 -47 96 C-47.01160156 95.21753906 -47.02320313 94.43507813 -47.03515625 93.62890625 C-47.04417969 92.61699219 -47.05320313 91.60507813 -47.0625 90.5625 C-47.07410156 89.55316406 -47.08570313 88.54382813 -47.09765625 87.50390625 C-47 85 -47 85 -46 84 C-45.76518307 81.81707226 -45.58636677 79.62796826 -45.4375 77.4375 C-45.35371094 76.23996094 -45.26992187 75.04242188 -45.18359375 73.80859375 C-45.12300781 72.88175781 -45.06242188 71.95492187 -45 71 C-44.34 71 -43.68 71 -43 71 C-43.01160156 70.28972656 -43.02320313 69.57945313 -43.03515625 68.84765625 C-43.04417969 67.92855469 -43.05320313 67.00945312 -43.0625 66.0625 C-43.07410156 65.14597656 -43.08570313 64.22945313 -43.09765625 63.28515625 C-43 61 -43 61 -42 60 C-41.855625 58.96875 -41.71125 57.9375 -41.5625 56.875 C-41.0082083 53.05654608 -40.12585988 49.67780895 -39 46 C-38.34 46 -37.68 46 -37 46 C-37 44.02 -37 42.04 -37 40 C-36.34 40 -35.68 40 -35 40 C-35 38.35 -35 36.7 -35 35 C-34.34 35 -33.68 35 -33 35 C-33 33.68 -33 32.36 -33 31 C-32.34 31 -31.68 31 -31 31 C-31 29.68 -31 28.36 -31 27 C-30.34 27 -29.68 27 -29 27 C-28.8453125 26.1646875 -28.8453125 26.1646875 -28.6875 25.3125 C-27.85821592 22.5230899 -26.65700944 20.3860936 -25 18 C-24.34 18 -23.68 18 -23 18 C-22.79375 17.278125 -22.5875 16.55625 -22.375 15.8125 C-20.52471012 12.02781616 -18.39759562 10.47741347 -15 8 C-14.34 8 -13.68 8 -13 8 C-13 7.34 -13 6.68 -13 6 C-12.01 6 -11.02 6 -10 6 C-10 5.34 -10 4.68 -10 4 C-8.68 4 -7.36 4 -6 4 C-6 3.34 -6 2.68 -6 2 C-4.02 2 -2.04 2 0 2 C0 1.34 0 0.68 0 0 Z " fill="#000000" transform="translate(236,17)"/>
<path d="M0 0 C4.62 0 9.24 0 14 0 C14 0.66 14 1.32 14 2 C15.65 2 17.3 2 19 2 C19 2.66 19 3.32 19 4 C20.32 4 21.64 4 23 4 C23 4.66 23 5.32 23 6 C24.32 6 25.64 6 27 6 C27 6.66 27 7.32 27 8 C27.57234375 8.11472656 28.1446875 8.22945312 28.734375 8.34765625 C31.21471656 9.06182356 33.06368697 10.07307872 35.25 11.4375 C35.95640625 11.86933594 36.6628125 12.30117188 37.390625 12.74609375 C37.92171875 13.15988281 38.4528125 13.57367188 39 14 C39 14.66 39 15.32 39 16 C39.66 16 40.32 16 41 16 C41 16.66 41 17.32 41 18 C41.66 18 42.32 18 43 18 C43 18.66 43 19.32 43 20 C43.66 20 44.32 20 45 20 C45 20.66 45 21.32 45 22 C45.66 22 46.32 22 47 22 C49 25 49 25 49 28 C49.66 28 50.32 28 51 28 C51 28.99 51 29.98 51 31 C51.66 31 52.32 31 53 31 C53 32.32 53 33.64 53 35 C53.66 35 54.32 35 55 35 C55 36.65 55 38.3 55 40 C55.66 40 56.32 40 57 40 C57 42.64 57 45.28 57 48 C57.66 48 58.32 48 59 48 C59 57.57 59 67.14 59 77 C58.34 77 57.68 77 57 77 C57 77.99 57 78.98 57 80 C56.34 80 55.68 80 55 80 C55 80.66 55 81.32 55 82 C54.01 82 53.02 82 52 82 C52 82.66 52 83.32 52 84 C49.36 84 46.72 84 44 84 C44 83.34 44 82.68 44 82 C42.02 82 40.04 82 38 82 C38 81.34 38 80.68 38 80 C36.35 80 34.7 80 33 80 C33 79.34 33 78.68 33 78 C31.68 78 30.36 78 29 78 C29 77.34 29 76.68 29 76 C28.42765625 75.88527344 27.8553125 75.77054687 27.265625 75.65234375 C24.78528344 74.93817644 22.93631303 73.92692128 20.75 72.5625 C20.04359375 72.13066406 19.3371875 71.69882813 18.609375 71.25390625 C17.81273437 70.63322266 17.81273437 70.63322266 17 70 C17 69.34 17 68.68 17 68 C16.13375 67.62875 16.13375 67.62875 15.25 67.25 C12.67060021 65.81700012 10.93878408 64.21575324 9 62 C9 61.34 9 60.68 9 60 C8.34 60 7.68 60 7 60 C7 59.34 7 58.68 7 58 C6.34 58 5.68 58 5 58 C5 57.01 5 56.02 5 55 C4.34 55 3.68 55 3 55 C3 54.01 3 53.02 3 52 C2.34 52 1.68 52 1 52 C1 50.68 1 49.36 1 48 C0.34 48 -0.32 48 -1 48 C-1 46.02 -1 44.04 -1 42 C-1.66 42 -2.32 42 -3 42 C-3 39.69 -3 37.38 -3 35 C-3.66 35 -4.32 35 -5 35 C-5 25.43 -5 15.86 -5 6 C-4.34 6 -3.68 6 -3 6 C-2.67 4.68 -2.34 3.36 -2 2 C-1.34 2 -0.68 2 0 2 C0 1.34 0 0.68 0 0 Z " fill="#000000" transform="translate(122,9)"/>
<path d="M0 0 C0.66 0 1.32 0 2 0 C2 0.66 2 1.32 2 2 C1.34 2 0.68 2 0 2 C0 1.34 0 0.68 0 0 Z " fill="#000000" transform="translate(303,369)"/>
<path d="M0 0 C0.66 0 1.32 0 2 0 C2 0.66 2 1.32 2 2 C1.34 2 0.68 2 0 2 C0 1.34 0 0.68 0 0 Z " fill="#000000" transform="translate(305,367)"/>
<path d="M0 0 C0.66 0 1.32 0 2 0 C2 0.66 2 1.32 2 2 C1.34 2 0.68 2 0 2 C0 1.34 0 0.68 0 0 Z " fill="#000000" transform="translate(315,357)"/>
<path d="M0 0 C0.66 0 1.32 0 2 0 C2 0.66 2 1.32 2 2 C1.34 2 0.68 2 0 2 C0 1.34 0 0.68 0 0 Z " fill="#000000" transform="translate(317,355)"/>
<path d="M0 0 C0.66 0 1.32 0 2 0 C2 0.66 2 1.32 2 2 C1.34 2 0.68 2 0 2 C0 1.34 0 0.68 0 0 Z " fill="#000000" transform="translate(319,353)"/>
<path d="M0 0 C0.66 0 1.32 0 2 0 C2 0.66 2 1.32 2 2 C1.34 2 0.68 2 0 2 C0 1.34 0 0.68 0 0 Z " fill="#000000" transform="translate(45,127)"/>
<path d="M0 0 C0.66 0 1.32 0 2 0 C1.67 0.66 1.34 1.32 1 2 C0.67 1.34 0.34 0.68 0 0 Z " fill="#000000" transform="translate(201,383)"/>
<path d="M0 0 C0.66 0 1.32 0 2 0 C1.67 0.66 1.34 1.32 1 2 C0.67 1.34 0.34 0.68 0 0 Z " fill="#000000" transform="translate(109,379)"/>
<path d="M0 0 C0.99 0.495 0.99 0.495 2 1 C1.01 1.495 1.01 1.495 0 2 C0 1.34 0 0.68 0 0 Z " fill="#000000" transform="translate(293,377)"/>
<path d="M0 0 C0.99 0.495 0.99 0.495 2 1 C1.01 1.495 1.01 1.495 0 2 C0 1.34 0 0.68 0 0 Z " fill="#000000" transform="translate(295,375)"/>
<path d="M0 0 C0.66 0 1.32 0 2 0 C1.67 0.66 1.34 1.32 1 2 C0.67 1.34 0.34 0.68 0 0 Z " fill="#000000" transform="translate(103,375)"/>
<path d="M0 0 C0.99 0.495 0.99 0.495 2 1 C1.01 1.495 1.01 1.495 0 2 C0 1.34 0 0.68 0 0 Z " fill="#000000" transform="translate(301,371)"/>
<path d="M0 0 C0.66 0 1.32 0 2 0 C1.67 0.66 1.34 1.32 1 2 C0.67 1.34 0.34 0.68 0 0 Z " fill="#000000" transform="translate(95,369)"/>
<path d="M0 0 C0.66 0 1.32 0 2 0 C1.67 0.66 1.34 1.32 1 2 C0.67 1.34 0.34 0.68 0 0 Z " fill="#000000" transform="translate(93,367)"/>
<path d="M0 0 C0.66 0 1.32 0 2 0 C1.67 0.66 1.34 1.32 1 2 C0.67 1.34 0.34 0.68 0 0 Z " fill="#000000" transform="translate(91,365)"/>
<path d="M0 0 C0.66 0 1.32 0 2 0 C1.67 0.66 1.34 1.32 1 2 C0.67 1.34 0.34 0.68 0 0 Z " fill="#000000" transform="translate(89,363)"/>
<path d="M0 0 C0.66 0 1.32 0 2 0 C1.67 0.66 1.34 1.32 1 2 C0.67 1.34 0.34 0.68 0 0 Z " fill="#000000" transform="translate(87,361)"/>
<path d="M0 0 C0.66 0 1.32 0 2 0 C1.67 0.66 1.34 1.32 1 2 C0.67 1.34 0.34 0.68 0 0 Z " fill="#000000" transform="translate(85,359)"/>
<path d="M0 0 C0.66 0 1.32 0 2 0 C1.67 0.66 1.34 1.32 1 2 C0.67 1.34 0.34 0.68 0 0 Z " fill="#000000" transform="translate(83,357)"/>
<path d="M0 0 C0.66 0 1.32 0 2 0 C1.67 0.66 1.34 1.32 1 2 C0.67 1.34 0.34 0.68 0 0 Z " fill="#000000" transform="translate(81,355)"/>
<path d="M0 0 C0.66 0 1.32 0 2 0 C1.67 0.66 1.34 1.32 1 2 C0.67 1.34 0.34 0.68 0 0 Z " fill="#000000" transform="translate(79,353)"/>
<path d="M0 0 C0.99 0.495 0.99 0.495 2 1 C1.01 1.495 1.01 1.495 0 2 C0 1.34 0 0.68 0 0 Z " fill="#000000" transform="translate(321,351)"/>
<path d="M0 0 C0.66 0 1.32 0 2 0 C1.67 0.66 1.34 1.32 1 2 C0.67 1.34 0.34 0.68 0 0 Z " fill="#000000" transform="translate(75,347)"/>
<path d="M0 0 C0.66 0 1.32 0 2 0 C1.67 0.66 1.34 1.32 1 2 C0.67 1.34 0.34 0.68 0 0 Z " fill="#000000" transform="translate(73,345)"/>
<path d="M0 0 C0.99 0.495 0.99 0.495 2 1 C1.01 1.495 1.01 1.495 0 2 C0 1.34 0 0.68 0 0 Z " fill="#000000" transform="translate(327,343)"/>
<path d="M0 0 C0.66 0 1.32 0 2 0 C1.67 0.66 1.34 1.32 1 2 C0.67 1.34 0.34 0.68 0 0 Z " fill="#000000" transform="translate(69,339)"/>
<path d="M0 0 C0.99 0.495 0.99 0.495 2 1 C1.01 1.495 1.01 1.495 0 2 C0 1.34 0 0.68 0 0 Z " fill="#000000" transform="translate(331,337)"/>
<path d="M0 0 C0.66 0 1.32 0 2 0 C1.67 0.66 1.34 1.32 1 2 C0.67 1.34 0.34 0.68 0 0 Z " fill="#000000" transform="translate(67,337)"/>
<path d="M0 0 C0.66 0 1.32 0 2 0 C1.67 0.66 1.34 1.32 1 2 C0.67 1.34 0.34 0.68 0 0 Z " fill="#000000" transform="translate(65,333)"/>
<path d="M0 0 C0.66 0 1.32 0 2 0 C1.67 0.66 1.34 1.32 1 2 C0.67 1.34 0.34 0.68 0 0 Z " fill="#000000" transform="translate(61,327)"/>
<path d="M0 0 C0.66 0 1.32 0 2 0 C1.67 0.66 1.34 1.32 1 2 C0.67 1.34 0.34 0.68 0 0 Z " fill="#000000" transform="translate(55,317)"/>
<path d="M0 0 C0.66 0 1.32 0 2 0 C1.67 0.66 1.34 1.32 1 2 C0.67 1.34 0.34 0.68 0 0 Z " fill="#000000" transform="translate(53,313)"/>
<path d="M0 0 C0.66 0 1.32 0 2 0 C1.67 0.66 1.34 1.32 1 2 C0.67 1.34 0.34 0.68 0 0 Z " fill="#000000" transform="translate(51,309)"/>
<path d="M0 0 C0.66 0 1.32 0 2 0 C1.67 0.66 1.34 1.32 1 2 C0.67 1.34 0.34 0.68 0 0 Z " fill="#000000" transform="translate(43,291)"/>
<path d="M0 0 C0.66 0.66 1.32 1.32 2 2 C1.34 2 0.68 2 0 2 C0 1.34 0 0.68 0 0 Z " fill="#000000" transform="translate(359,135)"/>
<path d="M0 0 C0.33 0.66 0.66 1.32 1 2 C0.34 1.67 -0.32 1.34 -1 1 C-0.67 0.67 -0.34 0.34 0 0 Z " fill="#000000" transform="translate(40,135)"/>
<path d="M0 0 C0.66 0.66 1.32 1.32 2 2 C1.34 2 0.68 2 0 2 C0 1.34 0 0.68 0 0 Z " fill="#000000" transform="translate(355,129)"/>
<path d="M0 0 C0.33 0.66 0.66 1.32 1 2 C0.34 1.67 -0.32 1.34 -1 1 C-0.67 0.67 -0.34 0.34 0 0 Z " fill="#000000" transform="translate(44,129)"/>
<path d="M0 0 C0.66 0.66 1.32 1.32 2 2 C1.34 2 0.68 2 0 2 C0 1.34 0 0.68 0 0 Z " fill="#000000" transform="translate(353,127)"/>
<path d="M0 0 C0.66 0.66 1.32 1.32 2 2 C1.34 2 0.68 2 0 2 C0 1.34 0 0.68 0 0 Z " fill="#000000" transform="translate(339,113)"/>
<path d="M0 0 C0.33 0.66 0.66 1.32 1 2 C0.34 1.67 -0.32 1.34 -1 1 C-0.67 0.67 -0.34 0.34 0 0 Z " fill="#000000" transform="translate(60,113)"/>
<path d="M0 0 C0.66 0.66 1.32 1.32 2 2 C1.34 2 0.68 2 0 2 C0 1.34 0 0.68 0 0 Z " fill="#000000" transform="translate(337,111)"/>
<path d="M0 0 C0.33 0.66 0.66 1.32 1 2 C0.34 1.67 -0.32 1.34 -1 1 C-0.67 0.67 -0.34 0.34 0 0 Z " fill="#000000" transform="translate(62,111)"/>
<path d="M0 0 C0.66 0.66 1.32 1.32 2 2 C1.34 2 0.68 2 0 2 C0 1.34 0 0.68 0 0 Z " fill="#000000" transform="translate(331,107)"/>
<path d="M0 0 C0.33 0.66 0.66 1.32 1 2 C0.34 1.67 -0.32 1.34 -1 1 C-0.67 0.67 -0.34 0.34 0 0 Z " fill="#000000" transform="translate(68,107)"/>
<path d="M0 0 C0.66 0.66 1.32 1.32 2 2 C1.34 2 0.68 2 0 2 C0 1.34 0 0.68 0 0 Z " fill="#000000" transform="translate(327,105)"/>
<path d="M0 0 C0.66 0 1.32 0 2 0 C1.67 0.66 1.34 1.32 1 2 C0.67 1.34 0.34 0.68 0 0 Z " fill="#000000" transform="translate(145,85)"/>
<path d="M0 0 C0.66 0 1.32 0 2 0 C1.67 0.66 1.34 1.32 1 2 C0.67 1.34 0.34 0.68 0 0 Z " fill="#000000" transform="translate(141,83)"/>
<path d="M0 0 C0.66 0 1.32 0 2 0 C1.67 0.66 1.34 1.32 1 2 C0.67 1.34 0.34 0.68 0 0 Z " fill="#000000" transform="translate(139,81)"/>
<path d="M0 0 C0.66 0 1.32 0 2 0 C1.67 0.66 1.34 1.32 1 2 C0.67 1.34 0.34 0.68 0 0 Z " fill="#000000" transform="translate(133,77)"/>
<path d="M0 0 C0.66 0 1.32 0 2 0 C1.67 0.66 1.34 1.32 1 2 C0.67 1.34 0.34 0.68 0 0 Z " fill="#000000" transform="translate(131,75)"/>
<path d="M0 0 C0.66 0 1.32 0 2 0 C1.67 0.66 1.34 1.32 1 2 C0.67 1.34 0.34 0.68 0 0 Z " fill="#000000" transform="translate(129,73)"/>
<path d="M0 0 C0.66 0 1.32 0 2 0 C1.67 0.66 1.34 1.32 1 2 C0.67 1.34 0.34 0.68 0 0 Z " fill="#000000" transform="translate(127,71)"/>
<path d="M0 0 C0.66 0 1.32 0 2 0 C1.67 0.66 1.34 1.32 1 2 C0.67 1.34 0.34 0.68 0 0 Z " fill="#000000" transform="translate(123,65)"/>
<path d="M0 0 C0.99 0.495 0.99 0.495 2 1 C1.01 1.495 1.01 1.495 0 2 C0 1.34 0 0.68 0 0 Z " fill="#000000" transform="translate(227,61)"/>
<path d="M0 0 C0.99 0.495 0.99 0.495 2 1 C1.01 1.495 1.01 1.495 0 2 C0 1.34 0 0.68 0 0 Z " fill="#000000" transform="translate(241,47)"/>
<path d="M0 0 C0.66 0.66 1.32 1.32 2 2 C1.34 2 0.68 2 0 2 C0 1.34 0 0.68 0 0 Z " fill="#000000" transform="translate(177,41)"/>
<path d="M0 0 C0.66 0.66 1.32 1.32 2 2 C1.34 2 0.68 2 0 2 C0 1.34 0 0.68 0 0 Z " fill="#000000" transform="translate(175,37)"/>
<path d="M0 0 C0.66 0.66 1.32 1.32 2 2 C1.34 2 0.68 2 0 2 C0 1.34 0 0.68 0 0 Z " fill="#000000" transform="translate(171,31)"/>
<path d="M0 0 C0.66 0.66 1.32 1.32 2 2 C1.34 2 0.68 2 0 2 C0 1.34 0 0.68 0 0 Z " fill="#000000" transform="translate(169,29)"/>
<path d="M0 0 C0.33 0.66 0.66 1.32 1 2 C0.34 1.67 -0.32 1.34 -1 1 C-0.67 0.67 -0.34 0.34 0 0 Z " fill="#000000" transform="translate(214,27)"/>
<path d="M0 0 C0.33 0.66 0.66 1.32 1 2 C0.34 1.67 -0.32 1.34 -1 1 C-0.67 0.67 -0.34 0.34 0 0 Z " fill="#000000" transform="translate(216,25)"/>
<path d="M0 0 C0.66 0.66 1.32 1.32 2 2 C1.34 2 0.68 2 0 2 C0 1.34 0 0.68 0 0 Z " fill="#000000" transform="translate(261,21)"/>
<path d="M0 0 C0.66 0.66 1.32 1.32 2 2 C1.34 2 0.68 2 0 2 C0 1.34 0 0.68 0 0 Z " fill="#000000" transform="translate(161,21)"/>
<path d="M0 0 C0.66 0.66 1.32 1.32 2 2 C1.34 2 0.68 2 0 2 C0 1.34 0 0.68 0 0 Z " fill="#000000" transform="translate(259,19)"/>
<path d="M0 0 C0.66 0.66 1.32 1.32 2 2 C1.34 2 0.68 2 0 2 C0 1.34 0 0.68 0 0 Z " fill="#000000" transform="translate(159,19)"/>
<path d="M0 0 C0.33 0.66 0.66 1.32 1 2 C0.34 1.67 -0.32 1.34 -1 1 C-0.67 0.67 -0.34 0.34 0 0 Z " fill="#000000" transform="translate(224,19)"/>
<path d="M0 0 C0.66 0.66 1.32 1.32 2 2 C1.34 2 0.68 2 0 2 C0 1.34 0 0.68 0 0 Z " fill="#000000" transform="translate(257,17)"/>
<path d="M0 0 C0.66 0.66 1.32 1.32 2 2 C1.34 2 0.68 2 0 2 C0 1.34 0 0.68 0 0 Z " fill="#000000" transform="translate(157,17)"/>
<path d="M0 0 C0.66 0.66 1.32 1.32 2 2 C1.34 2 0.68 2 0 2 C0 1.34 0 0.68 0 0 Z " fill="#000000" transform="translate(153,15)"/>
<path d="M0 0 C0.33 0.66 0.66 1.32 1 2 C0.34 1.67 -0.32 1.34 -1 1 C-0.67 0.67 -0.34 0.34 0 0 Z " fill="#000000" transform="translate(118,9)"/>
<path d="" fill="#000000" transform="translate(0,0)"/>
<path d="" fill="#000000" transform="translate(0,0)"/>
<path d="" fill="#000000" transform="translate(0,0)"/>
<path d="" fill="#000000" transform="translate(0,0)"/>
<path d="" fill="#000000" transform="translate(0,0)"/>
<path d="" fill="#000000" transform="translate(0,0)"/>
<path d="" fill="#000000" transform="translate(0,0)"/>
<path d="" fill="#000000" transform="translate(0,0)"/>
<path d="" fill="#000000" transform="translate(0,0)"/>
<path d="" fill="#000000" transform="translate(0,0)"/>
<path d="" fill="#000000" transform="translate(0,0)"/>
<path d="" fill="#000000" transform="translate(0,0)"/>
<path d="" fill="#000000" transform="translate(0,0)"/>
<path d="" fill="#000000" transform="translate(0,0)"/>
<path d="" fill="#000000" transform="translate(0,0)"/>
<path d="" fill="#000000" transform="translate(0,0)"/>
<path d="" fill="#000000" transform="translate(0,0)"/>
<path d="" fill="#000000" transform="translate(0,0)"/>
<path d="" fill="#000000" transform="translate(0,0)"/>
<path d="" fill="#000000" transform="translate(0,0)"/>
<path d="" fill="#000000" transform="translate(0,0)"/>
<path d="" fill="#000000" transform="translate(0,0)"/>
<path d="" fill="#000000" transform="translate(0,0)"/>
<path d="" fill="#000000" transform="translate(0,0)"/>
<path d="" fill="#000000" transform="translate(0,0)"/>
<path d="" fill="#000000" transform="translate(0,0)"/>
<path d="" fill="#000000" transform="translate(0,0)"/>
<path d="" fill="#000000" transform="translate(0,0)"/>
<path d="" fill="#000000" transform="translate(0,0)"/>
<path d="" fill="#000000" transform="translate(0,0)"/>
<path d="" fill="#000000" transform="translate(0,0)"/>
<path d="" fill="#000000" transform="translate(0,0)"/>
<path d="" fill="#000000" transform="translate(0,0)"/>
<path d="" fill="#000000" transform="translate(0,0)"/>
<path d="" fill="#000000" transform="translate(0,0)"/>
<path d="" fill="#000000" transform="translate(0,0)"/>
<path d="" fill="#000000" transform="translate(0,0)"/>
<path d="" fill="#000000" transform="translate(0,0)"/>
<path d="" fill="#000000" transform="translate(0,0)"/>
<path d="" fill="#000000" transform="translate(0,0)"/>
<path d="" fill="#000000" transform="translate(0,0)"/>
<path d="" fill="#000000" transform="translate(0,0)"/>
<path d="" fill="#000000" transform="translate(0,0)"/>
<path d="" fill="#000000" transform="translate(0,0)"/>
<path d="" fill="#000000" transform="translate(0,0)"/>
<path d="" fill="#000000" transform="translate(0,0)"/>
<path d="" fill="#000000" transform="translate(0,0)"/>
<path d="" fill="#000000" transform="translate(0,0)"/>
<path d="" fill="#000000" transform="translate(0,0)"/>
<path d="" fill="#000000" transform="translate(0,0)"/>
<path d="" fill="#000000" transform="translate(0,0)"/>
<path d="" fill="#000000" transform="translate(0,0)"/>
<path d="" fill="#000000" transform="translate(0,0)"/>
<path d="" fill="#000000" transform="translate(0,0)"/>
<path d="" fill="#000000" transform="translate(0,0)"/>
<path d="" fill="#000000" transform="translate(0,0)"/>
<path d="" fill="#000000" transform="translate(0,0)"/>
<path d="" fill="#000000" transform="translate(0,0)"/>
<path d="" fill="#000000" transform="translate(0,0)"/>
<path d="" fill="#000000" transform="translate(0,0)"/>
<path d="" fill="#000000" transform="translate(0,0)"/>
<path d="" fill="#000000" transform="translate(0,0)"/>
<path d="" fill="#000000" transform="translate(0,0)"/>
<path d="" fill="#000000" transform="translate(0,0)"/>
<path d="" fill="#000000" transform="translate(0,0)"/>
<path d="" fill="#000000" transform="translate(0,0)"/>
<path d="" fill="#000000" transform="translate(0,0)"/>
<path d="" fill="#000000" transform="translate(0,0)"/>
<path d="" fill="#000000" transform="translate(0,0)"/>
<path d="" fill="#000000" transform="translate(0,0)"/>
<path d="" fill="#000000" transform="translate(0,0)"/>
<path d="" fill="#000000" transform="translate(0,0)"/>
<path d="" fill="#000000" transform="translate(0,0)"/>
<path d="" fill="#000000" transform="translate(0,0)"/>
<path d="" fill="#000000" transform="translate(0,0)"/>
<path d="" fill="#000000" transform="translate(0,0)"/>
<path d="" fill="#000000" transform="translate(0,0)"/>
<path d="" fill="#000000" transform="translate(0,0)"/>
<path d="" fill="#000000" transform="translate(0,0)"/>
<path d="" fill="#000000" transform="translate(0,0)"/>
<path d="" fill="#000000" transform="translate(0,0)"/>
<path d="" fill="#000000" transform="translate(0,0)"/>
<path d="" fill="#000000" transform="translate(0,0)"/>
<path d="" fill="#000000" transform="translate(0,0)"/>
<path d="" fill="#000000" transform="translate(0,0)"/>
<path d="" fill="#000000" transform="translate(0,0)"/>
<path d="" fill="#000000" transform="translate(0,0)"/>
<path d="" fill="#000000" transform="translate(0,0)"/>
<path d="" fill="#000000" transform="translate(0,0)"/>
<path d="" fill="#000000" transform="translate(0,0)"/>
<path d="" fill="#000000" transform="translate(0,0)"/>
<path d="" fill="#000000" transform="translate(0,0)"/>
<path d="" fill="#000000" transform="translate(0,0)"/>
<path d="" fill="#000000" transform="translate(0,0)"/>
<path d="" fill="#000000" transform="translate(0,0)"/>
<path d="" fill="#000000" transform="translate(0,0)"/>
<path d="" fill="#000000" transform="translate(0,0)"/>
<path d="" fill="#000000" transform="translate(0,0)"/>
<path d="" fill="#000000" transform="translate(0,0)"/>
<path d="" fill="#000000" transform="translate(0,0)"/>
<path d="" fill="#000000" transform="translate(0,0)"/>
<path d="" fill="#000000" transform="translate(0,0)"/>
<path d="" fill="#000000" transform="translate(0,0)"/>
<path d="" fill="#000000" transform="translate(0,0)"/>
<path d="" fill="#000000" transform="translate(0,0)"/>
<path d="" fill="#000000" transform="translate(0,0)"/>
<path d="" fill="#000000" transform="translate(0,0)"/>
<path d="" fill="#000000" transform="translate(0,0)"/>
<path d="" fill="#000000" transform="translate(0,0)"/>
<path d="" fill="#000000" transform="translate(0,0)"/>
<path d="" fill="#000000" transform="translate(0,0)"/>
<path d="" fill="#000000" transform="translate(0,0)"/>
<path d="" fill="#000000" transform="translate(0,0)"/>
<path d="" fill="#000000" transform="translate(0,0)"/>
<path d="" fill="#000000" transform="translate(0,0)"/>
<path d="" fill="#000000" transform="translate(0,0)"/>
<path d="" fill="#000000" transform="translate(0,0)"/>
<path d="" fill="#000000" transform="translate(0,0)"/>
<path d="" fill="#000000" transform="translate(0,0)"/>
<path d="" fill="#000000" transform="translate(0,0)"/>
<path d="" fill="#000000" transform="translate(0,0)"/>
<path d="" fill="#000000" transform="translate(0,0)"/>
<path d="" fill="#000000" transform="translate(0,0)"/>
<path d="" fill="#000000" transform="translate(0,0)"/>
<path d="" fill="#000000" transform="translate(0,0)"/>
<path d="" fill="#000000" transform="translate(0,0)"/>
<path d="" fill="#000000" transform="translate(0,0)"/>
<path d="" fill="#000000" transform="translate(0,0)"/>
<path d="" fill="#000000" transform="translate(0,0)"/>
<path d="" fill="#000000" transform="translate(0,0)"/>
<path d="" fill="#000000" transform="translate(0,0)"/>
</svg>
