<svg width="20" height="20" viewBox="0 0 20 20" fill="none" xmlns="http://www.w3.org/2000/svg">
<g clip-path="url(#clip0_13_33)">
<path d="M18.364 9.51555C16.1886 11.691 7.80919 16.8501 5.47456 14.5154C3.22155 12.2624 8.30306 3.80141 10.4785 1.63003C12.654 -0.541344 16.1927 -0.545425 18.3681 1.63003C20.5436 3.80549 20.5395 7.34422 18.364 9.51555Z" fill="#21867A"/>
<path d="M3.28687 18.0419L5.69906 15.6297C5.39702 15.5032 5.12764 15.3114 4.90724 15.091C4.68684 14.8706 4.51133 14.5971 4.36848 14.2992L1.95629 16.7113C1.92364 16.6787 1.89099 16.6338 1.86242 16.6011C1.43386 16.1726 0.75224 16.1726 0.323679 16.6011C-0.104882 17.0297 -0.104882 17.7113 0.323679 18.1399C0.719588 18.5358 1.35631 18.5684 1.78487 18.2174C1.43386 18.646 1.46651 19.2827 1.86242 19.6786C2.29098 20.1072 2.97259 20.1072 3.40115 19.6786C3.82972 19.2501 3.82972 18.5684 3.40115 18.1399C3.36442 18.1032 3.31952 18.0705 3.28687 18.0419Z" fill="#21867A"/>
</g>
<defs>
<clipPath id="clip0_13_33">
<rect width="20" height="20" fill="white"/>
</clipPath>
</defs>
</svg>
