<svg width="25" height="25" viewBox="0 0 25 25" fill="none" xmlns="http://www.w3.org/2000/svg">
<g clip-path="url(#clip0_229_367)">
<path d="M12.5 25C5.59644 25 0 19.4036 0 12.5C0 5.59644 5.59644 0 12.5 0C19.4036 0 25 5.59644 25 12.5C25 19.4036 19.4036 25 12.5 25ZM12.3169 20.7031C12.9435 20.7031 13.4521 20.1945 13.4521 19.5679C13.4521 18.9413 12.9435 18.4326 12.3169 18.4326C11.6903 18.4326 11.1816 18.9413 11.1816 19.5679C11.1816 20.1945 11.6903 20.7031 12.3169 20.7031ZM17.2058 9.63843C17.2688 8.45059 16.8412 7.30994 15.9965 6.42627C15.0914 5.47444 13.8113 4.92903 12.4865 4.93164C11.2299 4.93428 10.0494 5.42461 9.16272 6.31353C8.27602 7.20244 7.78809 8.3824 7.78809 9.6384C7.78809 10.1602 8.21045 10.5824 8.7325 10.5824C9.25452 10.5824 9.67688 10.1602 9.67688 9.6384C9.67688 8.08608 10.9413 6.82224 12.4917 6.8196H12.4969C13.3023 6.8196 14.0788 7.15 14.6271 7.72686C15.1098 8.23296 15.3538 8.87537 15.3197 9.53877C15.2908 10.1078 15.2619 10.6453 13.5699 12.3366C12.5127 13.3933 11.5526 14.45 11.424 15.7585C11.3742 16.2777 11.7519 16.7418 12.2714 16.7916C12.3029 16.7943 12.3343 16.7969 12.3658 16.7969C12.8459 16.7969 13.2577 16.4324 13.305 15.9447C13.3653 15.3232 13.9608 14.6153 14.9052 13.6713C16.7677 11.8095 17.1403 10.8525 17.2058 9.6384V9.63843Z" fill="#EAEAEA"/>
</g>
<defs>
<clipPath id="clip0_229_367">
<rect width="25" height="25" fill="white"/>
</clipPath>
</defs>
</svg>
